<?xml version="1.0" encoding="UTF-8" standalone="no"?>
<!DOCTYPE svg PUBLIC "-//W3C//DTD SVG 1.1//EN" "http://www.w3.org/Graphics/SVG/1.1/DTD/svg11.dtd">
<svg xmlns="http://www.w3.org/2000/svg" version="1.1" viewBox="0.00 0.00 64.00 64.00">
<path fill="#000000" d="
  M 9.74 26.84
  Q 8.08 26.46 6.99 27.68
  Q 6.60 28.12 6.04 27.92
  L 0.81 26.03
  A 0.32 0.31 44.3 0 1 0.80 25.44
  L 31.56 13.61
  A 1.22 1.22 0.0 0 1 32.44 13.61
  L 63.29 25.48
  A 0.40 0.40 0.0 0 1 63.27 26.23
  L 32.48 36.25
  A 0.75 0.70 -43.2 0 1 32.01 36.25
  L 12.55 30.27
  Q 12.02 30.11 12.26 29.61
  L 12.42 29.27
  A 0.44 0.44 0.0 0 1 12.95 29.03
  Q 14.29 29.44 14.67 28.55
  Q 14.96 27.86 14.23 28.05
  L 11.28 28.81
  Q 10.59 28.99 10.55 29.70
  L 9.76 43.02
  A 1.39 1.39 0.0 0 1 8.38 44.32
  L 5.08 44.33
  A 1.30 1.30 0.0 0 1 3.77 43.06
  C 3.64 38.12 5.94 32.51 8.07 28.11
  Q 8.33 27.58 8.91 27.42
  L 9.75 27.19
  A 0.18 0.18 0.0 0 0 9.74 26.84
  Z"
/>
<path fill="#000000" d="
  M 13.51 32.72
  L 31.50 38.25
  Q 32.00 38.41 32.50 38.25
  L 50.47 32.72
  Q 50.94 32.58 50.97 33.07
  Q 51.33 39.99 50.96 43.23
  C 50.67 45.67 45.63 48.15 43.59 48.75
  Q 31.95 52.21 20.31 48.72
  C 17.65 47.93 13.18 45.65 13.01 42.48
  Q 12.77 37.80 12.98 33.09
  Q 13.01 32.56 13.51 32.72
  Z"
/>
</svg>
