<?xml version="1.0" encoding="UTF-8" standalone="no"?>
<!DOCTYPE svg PUBLIC "-//W3C//DTD SVG 1.1//EN" "http://www.w3.org/Graphics/SVG/1.1/DTD/svg11.dtd">
<svg xmlns="http://www.w3.org/2000/svg" version="1.1" viewBox="0.00 0.00 800.00 336.00">
<g stroke-width="2.00" fill="none" stroke-linecap="butt">
<path stroke="#6a7c3f" vector-effect="non-scaling-stroke" d="
  M 409.86 47.00
  L 409.55 54.43
  A 3.06 3.04 74.6 0 1 408.17 56.87
  C 406.68 57.87 405.44 59.35 405.44 61.24
  Q 405.42 78.63 405.44 95.38
  Q 405.44 95.92 405.72 96.39
  L 406.56 97.76"
/>
<path stroke="#78bb7f" vector-effect="non-scaling-stroke" d="
  M 406.29 101.72
  Q 405.34 102.99 405.35 103.50
  Q 405.69 124.19 405.34 144.88
  Q 405.32 145.79 406.49 146.96"
/>
<path stroke="#6a7c3f" vector-effect="non-scaling-stroke" d="
  M 406.33 152.27
  Q 406.25 152.84 405.67 153.83
  Q 405.42 154.27 405.42 154.77
  L 405.46 203.39"
/>
<path stroke="#6a7c3f" vector-effect="non-scaling-stroke" d="
  M 401.87 203.46
  Q 401.95 180.27 402.00 157.00
  Q 402.00 155.71 400.77 155.21"
/>
<path stroke="#78bb7f" vector-effect="non-scaling-stroke" d="
  M 401.85 149.53
  L 401.78 99.65"
/>
<path stroke="#6a7c3f" vector-effect="non-scaling-stroke" d="
  M 401.77 95.63
  L 401.95 59.46
  A 2.67 2.66 -21.7 0 1 402.79 57.52
  L 405.98 54.49
  Q 406.40 54.10 406.38 53.53
  L 406.23 46.89"
/>
<path stroke="#427474" vector-effect="non-scaling-stroke" d="
  M 397.82 157.35
  Q 396.39 159.51 395.15 159.14"
/>
<path stroke="#427474" vector-effect="non-scaling-stroke" d="
  M 397.50 93.01
  Q 397.11 92.49 396.94 91.78"
/>
<path stroke="#6a7c3f" vector-effect="non-scaling-stroke" d="
  M 417.17 46.74
  Q 417.55 47.16 417.06 47.70
  A 1.24 1.21 -24.8 0 0 416.75 48.51
  L 416.78 55.95
  A 2.02 2.00 69.6 0 1 416.09 57.47
  C 413.92 59.37 412.21 60.48 412.21 63.75
  Q 412.23 82.91 412.48 102.03"
/>
<path stroke="#6a7c3f" vector-effect="non-scaling-stroke" d="
  M 413.27 102.19
  Q 413.19 101.67 413.64 101.09
  A 1.43 1.43 0.0 0 0 413.95 100.20
  Q 414.00 80.96 413.92 64.99
  C 413.92 63.79 413.97 61.91 414.86 61.01
  Q 416.52 59.33 418.08 57.28
  Q 418.99 56.09 419.10 54.03
  Q 419.30 50.33 418.91 46.69"
/>
<path stroke="#6a7c3f" vector-effect="non-scaling-stroke" d="
  M 420.66 46.69
  L 420.21 56.05
  Q 420.19 56.56 419.90 56.98
  C 417.98 59.81 415.67 60.24 415.69 64.32
  Q 415.75 83.93 415.68 102.53"
/>
<path stroke="#78bb7f" vector-effect="non-scaling-stroke" d="
  M 415.53 106.71
  Q 416.28 110.01 418.53 112.90
  Q 420.20 115.03 420.36 116.43
  Q 420.84 120.45 419.83 123.66
  A 1.98 1.96 79.6 0 1 419.17 124.63
  Q 416.18 127.01 415.74 129.24
  Q 415.26 131.69 415.99 140.63"
/>
<path stroke="#6a7c3f" vector-effect="non-scaling-stroke" d="
  M 415.63 147.21
  L 415.73 203.42"
/>
<path stroke="#6a7c3f" vector-effect="non-scaling-stroke" d="
  M 409.93 203.41
  L 410.12 150.08"
/>
<path stroke="#78bb7f" vector-effect="non-scaling-stroke" d="
  M 410.15 144.57
  Q 409.97 137.52 410.01 130.25
  C 410.02 128.52 410.12 126.83 411.61 125.69
  Q 415.78 122.51 414.99 117.38
  C 414.62 115.01 413.00 112.97 411.82 110.91
  C 410.59 108.74 410.59 106.31 409.96 103.91"
/>
<path stroke="#6a7c3f" vector-effect="non-scaling-stroke" d="
  M 409.90 100.51
  C 410.15 99.70 410.51 98.99 410.51 98.12
  Q 410.50 80.01 410.58 62.57
  Q 410.58 61.61 411.22 60.89
  L 415.22 56.33
  Q 415.56 55.94 415.56 55.41
  L 415.45 46.22"
/>
<path stroke="#3c5338" vector-effect="non-scaling-stroke" d="
  M 397.29 60.51
  Q 397.49 74.63 397.38 88.88
  C 397.37 89.87 396.88 90.72 396.94 91.78"
/>
<path stroke="#499278" vector-effect="non-scaling-stroke" d="
  M 396.94 91.78
  Q 396.29 91.38 395.42 92.02"
/>
<path stroke="#6a7c3f" vector-effect="non-scaling-stroke" d="
  M 401.74 47.14
  L 401.27 55.04
  Q 401.24 55.53 400.94 55.92
  L 397.29 60.51"
/>
<path stroke="#729a43" vector-effect="non-scaling-stroke" d="
  M 397.29 60.51
  Q 396.22 59.97 397.41 58.67
  C 399.25 56.63 400.40 55.92 400.51 52.97
  Q 400.63 49.83 400.45 46.88"
/>
<path stroke="#6a7c3f" vector-effect="non-scaling-stroke" d="
  M 426.65 47.23
  L 426.50 62.91
  A 2.00 1.99 26.8 0 0 426.91 64.15
  Q 428.50 66.27 430.48 68.01
  A 2.71 2.67 20.2 0 1 431.40 69.96
  Q 431.66 81.42 431.28 93.24
  C 431.19 96.13 429.45 98.06 429.22 100.91
  Q 428.79 106.17 429.59 110.92"
/>
<path stroke="#78bb7f" vector-effect="non-scaling-stroke" d="
  M 429.65 116.48
  Q 428.12 124.47 429.53 132.53"
/>
<path stroke="#6a7c3f" vector-effect="non-scaling-stroke" d="
  M 429.98 138.94
  Q 429.63 139.37 429.27 140.12
  Q 428.99 140.71 428.98 141.44
  Q 428.72 172.50 429.12 203.46"
/>
<path stroke="#6a7c3f" vector-effect="non-scaling-stroke" d="
  M 425.77 203.41
  L 425.74 140.89"
/>
<path stroke="#78bb7f" vector-effect="non-scaling-stroke" d="
  M 425.26 135.71
  Q 425.90 134.46 425.98 132.25
  Q 426.31 122.97 425.34 114.41"
/>
<path stroke="#6a7c3f" vector-effect="non-scaling-stroke" d="
  M 425.45 108.66
  Q 425.90 103.43 426.26 98.73
  C 426.46 96.22 428.23 94.55 428.34 91.79
  Q 428.77 81.09 428.29 71.00
  C 428.13 67.82 423.17 67.50 423.25 64.50
  Q 423.46 55.84 422.98 47.13"
/>
<path stroke="#418b77" vector-effect="non-scaling-stroke" d="
  M 390.82 89.18
  Q 374.26 79.04 357.83 69.42
  Q 356.60 68.70 354.48 66.90"
/>
<path stroke="#6a7c3f" vector-effect="non-scaling-stroke" d="
  M 412.40 148.90
  C 412.08 149.73 411.75 150.18 411.75 151.08
  Q 411.70 176.52 411.74 201.95
  Q 411.74 203.03 412.81 202.96
  L 413.13 202.94
  Q 413.86 202.89 413.86 202.17
  L 413.86 148.29"
/>
<path stroke="#78bb7f" vector-effect="non-scaling-stroke" d="
  M 413.24 142.65
  Q 413.19 142.17 413.57 141.61
  Q 413.85 141.20 413.86 140.70
  Q 413.87 136.05 413.99 130.97
  Q 414.08 127.44 416.06 125.88
  Q 417.79 124.51 418.39 122.71
  Q 419.72 118.67 418.15 115.42
  Q 416.54 112.10 413.46 108.25
  A 0.60 0.60 0.0 0 0 412.61 108.16
  Q 412.36 108.36 412.36 108.68
  Q 412.32 109.90 413.08 110.67
  Q 415.62 113.23 416.34 115.63
  Q 417.15 118.32 416.54 121.60
  C 415.89 125.04 411.59 125.74 411.61 129.95
  Q 411.63 136.26 411.88 142.50"
/>
<path stroke="#6a7c3f" vector-effect="non-scaling-stroke" d="
  M 396.7844 160.7392
  A 0.44 0.44 0.0 0 0 396.3437 160.3000
  L 396.3037 160.3001
  A 0.44 0.44 0.0 0 0 395.8644 160.7408
  L 395.9356 201.4808
  A 0.44 0.44 0.0 0 0 396.3763 201.9200
  L 396.4163 201.9199
  A 0.44 0.44 0.0 0 0 396.8556 201.4792
  L 396.7844 160.7392"
/>
</g>
<path fill="#a0c34a" d="
  M 409.86 47.00
  L 409.55 54.43
  A 3.06 3.04 74.6 0 1 408.17 56.87
  C 406.68 57.87 405.44 59.35 405.44 61.24
  Q 405.42 78.63 405.44 95.38
  Q 405.44 95.92 405.72 96.39
  L 406.56 97.76
  Q 405.31 99.68 406.29 101.72
  Q 405.34 102.99 405.35 103.50
  Q 405.69 124.19 405.34 144.88
  Q 405.32 145.79 406.49 146.96
  Q 405.45 149.16 406.33 152.27
  Q 406.25 152.84 405.67 153.83
  Q 405.42 154.27 405.42 154.77
  L 405.46 203.39
  L 405.50 211.75
  Q 405.51 212.99 404.27 212.99
  L 298.42 212.99
  A 1.57 1.57 0.0 0 1 296.85 211.42
  L 296.83 38.02
  A 1.41 1.41 0.0 0 1 298.24 36.61
  L 389.54 36.64
  A 1.42 1.41 88.7 0 1 390.95 38.00
  Q 390.96 38.13 390.95 38.26
  A 1.70 1.69 1.2 0 1 389.25 39.88
  L 300.81 39.87
  Q 300.12 39.87 300.12 40.56
  L 300.12 208.44
  Q 300.12 209.77 301.44 209.77
  L 401.00 209.77
  A 0.66 0.65 0.9 0 0 401.66 209.14
  L 401.87 203.46
  Q 401.95 180.27 402.00 157.00
  Q 402.00 155.71 400.77 155.21
  Q 401.92 153.09 401.85 149.53
  L 401.78 99.65
  L 401.77 95.63
  L 401.95 59.46
  A 2.67 2.66 -21.7 0 1 402.79 57.52
  L 405.98 54.49
  Q 406.40 54.10 406.38 53.53
  L 406.23 46.89
  C 406.61 44.13 406.91 40.40 405.59 37.92
  C 403.98 34.90 405.67 31.70 409.22 32.45
  Q 409.71 32.56 410.03 32.94
  Q 412.25 35.59 410.21 38.31
  A 1.54 1.52 -26.7 0 0 409.90 39.23
  L 409.86 47.00
  Z"
/>
<path fill="#a0c34a" d="
  M 417.17 46.74
  Q 417.55 47.16 417.06 47.70
  A 1.24 1.21 -24.8 0 0 416.75 48.51
  L 416.78 55.95
  A 2.02 2.00 69.6 0 1 416.09 57.47
  C 413.92 59.37 412.21 60.48 412.21 63.75
  Q 412.23 82.91 412.48 102.03
  Q 411.57 102.94 412.18 105.42
  Q 412.52 106.85 413.45 105.71
  Q 414.57 104.36 413.27 102.19
  Q 413.19 101.67 413.64 101.09
  A 1.43 1.43 0.0 0 0 413.95 100.20
  Q 414.00 80.96 413.92 64.99
  C 413.92 63.79 413.97 61.91 414.86 61.01
  Q 416.52 59.33 418.08 57.28
  Q 418.99 56.09 419.10 54.03
  Q 419.30 50.33 418.91 46.69
  L 418.87 33.23
  Q 418.87 32.61 419.48 32.69
  L 419.93 32.75
  Q 420.44 32.81 420.45 33.33
  L 420.66 46.69
  L 420.21 56.05
  Q 420.19 56.56 419.90 56.98
  C 417.98 59.81 415.67 60.24 415.69 64.32
  Q 415.75 83.93 415.68 102.53
  L 415.53 106.71
  Q 416.28 110.01 418.53 112.90
  Q 420.20 115.03 420.36 116.43
  Q 420.84 120.45 419.83 123.66
  A 1.98 1.96 79.6 0 1 419.17 124.63
  Q 416.18 127.01 415.74 129.24
  Q 415.26 131.69 415.99 140.63
  Q 415.81 140.87 415.54 141.38
  Q 415.33 141.76 415.32 142.20
  Q 415.29 144.27 415.63 147.21
  L 415.73 203.42
  L 409.93 203.41
  L 410.12 150.08
  L 410.15 144.57
  Q 409.97 137.52 410.01 130.25
  C 410.02 128.52 410.12 126.83 411.61 125.69
  Q 415.78 122.51 414.99 117.38
  C 414.62 115.01 413.00 112.97 411.82 110.91
  C 410.59 108.74 410.59 106.31 409.96 103.91
  Q 410.46 102.09 409.90 100.51
  C 410.15 99.70 410.51 98.99 410.51 98.12
  Q 410.50 80.01 410.58 62.57
  Q 410.58 61.61 411.22 60.89
  L 415.22 56.33
  Q 415.56 55.94 415.56 55.41
  L 415.45 46.22
  L 415.50 33.11
  Q 415.50 32.60 416.01 32.61
  L 416.29 32.62
  A 0.80 0.79 -89.6 0 1 417.06 33.41
  L 417.17 46.74
  Z
  M 411.88 142.50
  L 412.06 148.59
  Q 412.07 148.77 412.20 148.91
  Q 412.36 149.08 412.40 148.90
  C 412.08 149.73 411.75 150.18 411.75 151.08
  Q 411.70 176.52 411.74 201.95
  Q 411.74 203.03 412.81 202.96
  L 413.13 202.94
  Q 413.86 202.89 413.86 202.17
  L 413.86 148.29
  Q 413.54 146.27 413.62 143.13
  Q 413.63 142.73 413.24 142.65
  Q 413.19 142.17 413.57 141.61
  Q 413.85 141.20 413.86 140.70
  Q 413.87 136.05 413.99 130.97
  Q 414.08 127.44 416.06 125.88
  Q 417.79 124.51 418.39 122.71
  Q 419.72 118.67 418.15 115.42
  Q 416.54 112.10 413.46 108.25
  A 0.60 0.60 0.0 0 0 412.61 108.16
  Q 412.36 108.36 412.36 108.68
  Q 412.32 109.90 413.08 110.67
  Q 415.62 113.23 416.34 115.63
  Q 417.15 118.32 416.54 121.60
  C 415.89 125.04 411.59 125.74 411.61 129.95
  Q 411.63 136.26 411.88 142.50
  Z"
/>
<path fill="#a0c34a" d="
  M 426.65 47.23
  L 426.50 62.91
  A 2.00 1.99 26.8 0 0 426.91 64.15
  Q 428.50 66.27 430.48 68.01
  A 2.71 2.67 20.2 0 1 431.40 69.96
  Q 431.66 81.42 431.28 93.24
  C 431.19 96.13 429.45 98.06 429.22 100.91
  Q 428.79 106.17 429.59 110.92
  L 429.65 116.48
  Q 428.12 124.47 429.53 132.53
  Q 430.30 135.17 429.98 138.94
  Q 429.63 139.37 429.27 140.12
  Q 428.99 140.71 428.98 141.44
  Q 428.72 172.50 429.12 203.46
  L 429.28 209.17
  A 0.62 0.62 0.0 0 0 429.90 209.77
  L 473.72 209.76
  A 0.99 0.98 -0.0 0 0 474.71 208.78
  L 474.69 40.73
  A 0.86 0.86 0.0 0 0 473.83 39.87
  L 444.66 39.87
  A 1.17 1.17 0.0 0 0 443.74 40.32
  C 441.31 43.44 434.61 44.91 432.76 40.13
  Q 431.94 38.02 433.18 35.82
  C 435.92 30.94 440.25 33.22 443.27 36.01
  A 2.47 2.42 65.8 0 0 444.96 36.67
  Q 460.65 36.62 475.79 36.60
  Q 476.49 36.60 477.13 36.77
  Q 477.88 36.96 477.88 37.75
  L 477.91 211.79
  A 1.20 1.20 0.0 0 1 476.71 212.99
  L 426.81 212.99
  A 0.79 0.79 0.0 0 1 426.02 212.22
  L 425.77 203.41
  L 425.74 140.89
  L 425.26 135.71
  Q 425.90 134.46 425.98 132.25
  Q 426.31 122.97 425.34 114.41
  L 425.45 108.66
  Q 425.90 103.43 426.26 98.73
  C 426.46 96.22 428.23 94.55 428.34 91.79
  Q 428.77 81.09 428.29 71.00
  C 428.13 67.82 423.17 67.50 423.25 64.50
  Q 423.46 55.84 422.98 47.13
  Q 423.25 42.86 422.49 34.76
  Q 422.25 32.29 424.98 32.43
  Q 427.42 32.55 427.02 34.96
  Q 426.03 40.97 426.65 47.23
  Z
  M 441.41 38.52
  A 3.70 3.70 0.0 0 0 437.71 34.82
  A 3.70 3.70 0.0 0 0 434.01 38.52
  A 3.70 3.70 0.0 0 0 437.71 42.22
  A 3.70 3.70 0.0 0 0 441.41 38.52
  Z"
/>
<path fill="#a0c34a" d="
  M 401.74 47.14
  L 401.27 55.04
  Q 401.24 55.53 400.94 55.92
  L 397.29 60.51
  Q 396.22 59.97 397.41 58.67
  C 399.25 56.63 400.40 55.92 400.51 52.97
  Q 400.63 49.83 400.45 46.88
  L 400.68 36.17
  Q 400.69 35.67 401.17 35.82
  Q 401.47 35.92 401.47 36.25
  Q 401.53 43.68 401.74 47.14
  Z"
/>
<path fill="#343534" d="
  M 415.45 46.22
  L 415.56 55.41
  Q 415.56 55.94 415.22 56.33
  L 411.22 60.89
  Q 410.58 61.61 410.58 62.57
  Q 410.50 80.01 410.51 98.12
  C 410.51 98.99 410.15 99.70 409.90 100.51
  L 406.56 97.76
  L 405.72 96.39
  Q 405.44 95.92 405.44 95.38
  Q 405.42 78.63 405.44 61.24
  C 405.44 59.35 406.68 57.87 408.17 56.87
  A 3.06 3.04 74.6 0 0 409.55 54.43
  L 409.86 47.00
  Q 415.13 47.85 415.45 46.22
  Z"
/>
<path fill="#43703c" d="
  M 390.82 89.18
  Q 374.26 79.04 357.83 69.42
  Q 356.60 68.70 354.48 66.90
  L 389.51 46.53
  A 1.01 1.01 0.0 0 1 391.02 47.41
  L 390.82 89.18
  Z"
/>
<path fill="#43703c" d="
  M 400.45 46.88
  Q 400.63 49.83 400.51 52.97
  C 400.40 55.92 399.25 56.63 397.41 58.67
  Q 396.22 59.97 397.29 60.51
  Q 397.49 74.63 397.38 88.88
  C 397.37 89.87 396.88 90.72 396.94 91.78
  Q 396.29 91.38 395.42 92.02
  Q 393.75 89.63 393.75 88.50
  Q 393.73 68.50 393.77 48.19
  A 1.13 1.13 0.0 0 1 395.09 47.09
  Q 397.47 47.51 400.45 46.88
  Z"
/>
<path fill="#343534" d="
  M 406.23 46.89
  L 406.38 53.53
  Q 406.40 54.10 405.98 54.49
  L 402.79 57.52
  A 2.67 2.66 -21.7 0 0 401.95 59.46
  L 401.77 95.63
  Q 399.85 94.03 398.46 92.89
  Q 398.20 92.68 397.99 92.72
  Q 397.74 92.77 397.50 93.01
  Q 397.11 92.49 396.94 91.78
  C 396.88 90.72 397.37 89.87 397.38 88.88
  Q 397.49 74.63 397.29 60.51
  L 400.94 55.92
  Q 401.24 55.53 401.27 55.04
  L 401.74 47.14
  Q 404.79 47.47 406.23 46.89
  Z"
/>
<path fill="#343534" d="
  M 417.17 46.74
  Q 417.46 47.07 417.68 47.20
  Q 417.92 47.34 418.27 47.11
  Q 418.52 46.94 418.91 46.69
  Q 419.30 50.33 419.10 54.03
  Q 418.99 56.09 418.08 57.28
  Q 416.52 59.33 414.86 61.01
  C 413.97 61.91 413.92 63.79 413.92 64.99
  Q 414.00 80.96 413.95 100.20
  A 1.43 1.43 0.0 0 1 413.64 101.09
  Q 413.19 101.67 413.27 102.19
  Q 412.99 102.27 412.48 102.03
  Q 412.23 82.91 412.21 63.75
  C 412.21 60.48 413.92 59.37 416.09 57.47
  A 2.02 2.00 69.6 0 0 416.78 55.95
  L 416.75 48.51
  A 1.24 1.21 -24.8 0 1 417.06 47.70
  Q 417.55 47.16 417.17 46.74
  Z"
/>
<path fill="#343534" d="
  M 420.66 46.69
  Q 421.53 47.89 422.98 47.13
  Q 423.46 55.84 423.25 64.50
  C 423.17 67.50 428.13 67.82 428.29 71.00
  Q 428.77 81.09 428.34 91.79
  C 428.23 94.55 426.46 96.22 426.26 98.73
  Q 425.90 103.43 425.45 108.66
  L 415.68 102.53
  Q 415.75 83.93 415.69 64.32
  C 415.67 60.24 417.98 59.81 419.90 56.98
  Q 420.19 56.56 420.21 56.05
  L 420.66 46.69
  Z"
/>
<path fill="#343534" d="
  M 380.64 48.13
  L 350.58 64.49
  A 0.50 0.50 0.0 0 1 350.10 64.48
  L 321.11 48.13
  A 0.50 0.50 0.0 0 1 321.35 47.19
  L 380.41 47.19
  A 0.50 0.50 0.0 0 1 380.64 48.13
  Z"
/>
<path fill="#343534" d="
  M 429.12 203.46
  Q 428.72 172.50 428.98 141.44
  Q 428.99 140.71 429.27 140.12
  Q 429.63 139.37 429.98 138.94
  L 453.20 125.79
  Q 454.50 125.06 453.20 124.33
  L 429.59 110.92
  Q 428.79 106.17 429.22 100.91
  C 429.45 98.06 431.19 96.13 431.28 93.24
  Q 431.66 81.42 431.40 69.96
  A 2.71 2.67 20.2 0 0 430.48 68.01
  Q 428.50 66.27 426.91 64.15
  A 2.00 1.99 26.8 0 1 426.50 62.91
  L 426.65 47.23
  L 462.96 47.13
  A 1.09 1.09 0.0 0 1 464.05 48.22
  L 464.03 202.06
  A 1.41 1.41 0.0 0 1 462.62 203.47
  L 429.12 203.46
  Z"
/>
<path fill="#4fb3b3" d="
  M 395.42 92.02
  Q 396.29 91.38 396.94 91.78
  Q 397.11 92.49 397.50 93.01
  C 397.28 94.38 397.29 95.35 398.25 96.46
  Q 399.68 98.10 401.78 99.65
  L 401.85 149.53
  L 398.20 151.57
  Q 397.73 151.83 397.74 152.37
  L 397.82 157.35
  Q 396.39 159.51 395.15 159.14
  Q 396.33 155.89 395.63 153.66
  A 1.03 1.02 -27.0 0 0 394.05 153.15
  C 392.63 154.18 391.49 155.34 389.96 156.21
  C 370.31 167.36 350.62 179.09 331.26 190.07
  Q 325.97 193.07 321.21 195.98
  Q 316.42 198.90 311.00 201.63
  Q 310.36 201.95 310.36 201.23
  L 310.35 47.95
  A 0.44 0.43 15.0 0 1 311.00 47.58
  L 344.75 66.83
  Q 346.12 67.62 344.72 68.34
  L 315.49 83.51
  A 0.44 0.43 -41.2 0 0 315.44 84.25
  Q 348.43 107.42 383.48 132.42
  Q 388.18 135.77 392.83 139.23
  A 0.46 0.46 0.0 0 0 393.52 139.07
  Q 393.85 138.44 393.84 137.71
  Q 393.71 116.49 393.98 97.54
  Q 393.99 97.02 394.39 96.68
  Q 396.32 95.02 395.42 92.02
  Z"
/>
<path fill="#3fa5b2" d="
  M 354.48 66.90
  Q 356.60 68.70 357.83 69.42
  Q 374.26 79.04 390.82 89.18
  L 390.90 131.75
  A 0.77 0.76 -82.0 0 1 389.93 132.49
  Q 389.34 132.33 388.74 131.90
  Q 357.61 109.61 328.22 88.63
  Q 325.41 86.63 322.35 84.65
  A 0.55 0.55 0.0 0 1 322.39 83.70
  L 354.48 66.90
  Z"
/>
<path fill="#4fb3b3" d="
  M 406.29 101.72
  L 409.96 103.91
  C 410.59 106.31 410.59 108.74 411.82 110.91
  C 413.00 112.97 414.62 115.01 414.99 117.38
  Q 415.78 122.51 411.61 125.69
  C 410.12 126.83 410.02 128.52 410.01 130.25
  Q 409.97 137.52 410.15 144.57
  L 406.49 146.96
  Q 405.32 145.79 405.34 144.88
  Q 405.69 124.19 405.35 103.50
  Q 405.34 102.99 406.29 101.72
  Z"
/>
<path fill="#4fb3b3" d="
  M 415.53 106.71
  L 425.34 114.41
  Q 426.31 122.97 425.98 132.25
  Q 425.90 134.46 425.26 135.71
  L 415.99 140.63
  Q 415.26 131.69 415.74 129.24
  Q 416.18 127.01 419.17 124.63
  A 1.98 1.96 79.6 0 0 419.83 123.66
  Q 420.84 120.45 420.36 116.43
  Q 420.20 115.03 418.53 112.90
  Q 416.28 110.01 415.53 106.71
  Z"
/>
<path fill="#4fb3b3" d="
  M 413.24 142.65
  Q 412.78 142.45 411.88 142.50
  Q 411.63 136.26 411.61 129.95
  C 411.59 125.74 415.89 125.04 416.54 121.60
  Q 417.15 118.32 416.34 115.63
  Q 415.62 113.23 413.08 110.67
  Q 412.32 109.90 412.36 108.68
  Q 412.36 108.36 412.61 108.16
  A 0.60 0.60 0.0 0 1 413.46 108.25
  Q 416.54 112.10 418.15 115.42
  Q 419.72 118.67 418.39 122.71
  Q 417.79 124.51 416.06 125.88
  Q 414.08 127.44 413.99 130.97
  Q 413.87 136.05 413.86 140.70
  Q 413.85 141.20 413.57 141.61
  Q 413.19 142.17 413.24 142.65
  Z"
/>
<path fill="#4fb3b3" d="
  M 429.65 116.48
  L 444.58 124.42
  Q 445.28 124.79 444.57 125.14
  L 429.53 132.53
  Q 428.12 124.47 429.65 116.48
  Z"
/>
<path fill="#343534" d="
  M 425.74 140.89
  L 425.77 203.41
  L 415.73 203.42
  L 415.63 147.21
  L 425.74 140.89
  Z"
/>
<path fill="#343534" d="
  M 413.86 148.29
  L 413.86 202.17
  Q 413.86 202.89 413.13 202.94
  L 412.81 202.96
  Q 411.74 203.03 411.74 201.95
  Q 411.70 176.52 411.75 151.08
  C 411.75 150.18 412.08 149.73 412.40 148.90
  Q 413.16 148.90 413.86 148.29
  Z"
/>
<path fill="#343534" d="
  M 410.12 150.08
  L 409.93 203.41
  L 405.46 203.39
  L 405.42 154.77
  Q 405.42 154.27 405.67 153.83
  Q 406.25 152.84 406.33 152.27
  L 410.12 150.08
  Z"
/>
<path fill="#343534" d="
  M 400.77 155.21
  Q 402.00 155.71 402.00 157.00
  Q 401.95 180.27 401.87 203.46
  L 320.24 203.28
  Q 319.19 203.28 320.10 202.75
  L 395.15 159.14
  Q 396.39 159.51 397.82 157.35
  L 400.77 155.21
  Z
  M 396.7844 160.7392
  A 0.44 0.44 0.0 0 0 396.3437 160.3000
  L 396.3037 160.3001
  A 0.44 0.44 0.0 0 0 395.8644 160.7408
  L 395.9356 201.4808
  A 0.44 0.44 0.0 0 0 396.3763 201.9200
  L 396.4163 201.9199
  A 0.44 0.44 0.0 0 0 396.8556 201.4792
  L 396.7844 160.7392
  Z"
/>
<rect fill="#a0c34a" x="-0.46" y="-20.81" transform="translate(396.36,181.11) rotate(-0.1)" width="0.92" height="41.62" rx="0.44"/>
<path fill="#343534" d="
  M 79.41 241.69
  L 77.45 243.26
  A 1.05 1.03 -40.2 0 1 76.03 243.15
  L 74.34 241.30
  Q 73.85 240.76 74.36 240.25
  L 76.55 238.07
  A 0.61 0.61 0.0 0 1 77.41 238.07
  L 79.05 239.69
  A 0.94 0.94 0.0 0 0 80.41 239.65
  L 81.74 238.18
  A 0.97 0.95 37.2 0 1 82.97 238.02
  Q 84.19 238.81 84.98 239.94
  Q 85.37 240.49 84.98 241.03
  Q 84.08 242.27 82.86 243.12
  Q 82.30 243.52 81.80 243.04
  L 80.46 241.74
  Q 79.96 241.25 79.41 241.69
  Z"
/>
<path fill="#343534" d="
  M 608.65 239.81
  L 610.49 238.03
  Q 611.07 237.48 611.65 238.02
  L 613.37 239.59
  Q 614.09 240.26 613.52 241.07
  Q 612.63 242.34 611.27 243.14
  A 0.69 0.69 0.0 0 1 610.33 242.92
  Q 609.72 241.98 608.71 241.65
  Q 608.20 241.48 607.79 241.84
  L 606.00 243.42
  Q 605.46 243.89 604.96 243.37
  L 603.18 241.48
  Q 602.54 240.79 603.21 240.13
  L 605.17 238.22
  A 0.70 0.69 45.9 0 1 606.16 238.24
  L 607.63 239.79
  Q 608.13 240.31 608.65 239.81
  Z"
/>
<path fill="#343534" d="
  M 172.55 264.68
  C 170.09 264.23 166.82 264.56 167.19 260.72
  C 167.44 258.16 169.15 250.42 172.77 251.51
  C 175.65 252.38 176.00 256.97 176.27 259.37
  Q 176.34 260.02 176.99 260.02
  L 197.99 260.08
  A 0.98 0.98 0.0 0 0 198.97 259.13
  Q 199.19 252.16 197.00 244.56
  C 196.56 243.05 198.26 241.09 199.24 240.11
  A 0.54 0.53 51.4 0 1 200.07 240.21
  L 202.05 243.45
  Q 202.33 243.92 202.03 244.38
  Q 200.92 246.08 201.16 247.76
  C 201.72 251.73 202.49 256.72 202.09 260.91
  C 201.83 263.69 197.96 264.58 195.70 264.58
  Q 186.33 264.55 176.61 264.53
  A 0.81 0.80 8.2 0 0 175.84 265.10
  C 175.03 267.73 173.77 270.08 171.20 271.37
  C 168.18 272.89 164.02 271.21 161.23 269.91
  A 0.78 0.76 19.4 0 1 160.80 269.04
  Q 161.04 268.00 162.11 268.25
  Q 167.50 269.53 172.73 265.44
  Q 173.49 264.85 172.55 264.68
  Z
  M 170.97 260.07
  L 172.47 260.11
  A 0.45 0.45 0.0 0 0 172.93 259.67
  L 172.94 259.50
  A 3.60 1.09 -88.4 0 0 171.95 255.87
  L 171.73 255.87
  A 3.60 1.09 -88.4 0 0 170.54 259.44
  L 170.53 259.61
  A 0.45 0.45 0.0 0 0 170.97 260.07
  Z"
/>
<path fill="#343534" d="
  M 218.76 264.75
  Q 217.49 264.45 216.14 264.40
  C 210.51 264.16 214.26 253.25 217.02 251.69
  A 2.34 2.34 0.0 0 1 220.03 252.30
  Q 222.20 255.12 222.19 259.25
  Q 222.18 260.00 222.93 260.00
  L 236.11 260.03
  A 1.84 1.83 82.6 0 0 237.89 257.72
  L 236.93 254.16
  Q 236.69 253.28 237.14 252.48
  L 239.03 249.05
  Q 239.64 247.96 240.01 249.15
  Q 241.30 253.34 241.82 257.55
  A 2.77 2.76 86.5 0 0 244.56 259.98
  L 260.94 260.01
  A 0.89 0.89 0.0 0 0 261.59 258.52
  Q 259.15 255.88 255.69 253.26
  C 247.66 247.18 263.90 241.50 267.21 240.23
  Q 268.49 239.75 267.99 241.02
  L 267.17 243.11
  Q 266.59 244.58 265.15 245.22
  L 258.30 248.25
  A 1.03 1.03 0.0 0 0 258.06 249.98
  Q 262.40 253.61 265.90 257.84
  C 267.03 259.21 268.66 259.99 270.44 259.99
  Q 275.87 259.99 281.96 260.06
  C 283.72 260.08 284.15 258.39 283.68 256.96
  Q 283.14 255.31 282.80 253.84
  Q 282.67 253.27 282.95 252.76
  L 285.12 248.85
  A 0.41 0.41 0.0 0 1 285.86 248.92
  Q 287.31 253.32 287.75 257.49
  A 2.82 2.82 0.0 0 0 290.54 260.01
  L 312.45 260.10
  Q 313.93 260.11 313.92 258.63
  Q 313.88 251.28 311.83 244.24
  Q 311.69 243.75 311.90 243.29
  Q 312.65 241.64 313.94 240.28
  Q 314.62 239.55 315.14 240.41
  L 316.82 243.26
  Q 317.30 244.08 316.74 244.84
  Q 315.79 246.12 316.03 247.64
  Q 316.90 253.28 317.10 260.10
  C 317.18 262.99 314.27 264.42 311.82 264.47
  Q 302.08 264.63 290.89 264.48
  Q 287.92 264.44 286.64 261.97
  A 0.66 0.66 0.0 0 0 285.46 261.97
  C 284.66 263.55 283.44 264.54 281.55 264.55
  Q 275.23 264.59 269.00 264.44
  Q 266.12 264.38 264.49 262.25
  Q 263.72 261.24 263.06 262.32
  Q 261.76 264.44 259.51 264.48
  Q 252.67 264.58 245.02 264.50
  Q 242.09 264.47 240.73 262.12
  Q 240.10 261.01 239.48 262.13
  C 237.91 264.95 235.96 264.49 232.61 264.51
  Q 227.73 264.52 222.94 264.52
  Q 221.85 264.52 221.56 265.57
  C 220.35 269.97 216.92 272.98 212.27 271.72
  Q 209.49 270.96 207.28 269.94
  A 0.92 0.92 0.0 0 1 206.85 268.70
  Q 207.17 268.06 207.89 268.22
  Q 213.78 269.56 218.88 265.26
  A 0.30 0.29 -58.6 0 0 218.76 264.75
  Z
  M 217.53 256.14
  Q 216.33 257.68 216.70 259.49
  Q 216.80 259.98 217.30 260.03
  L 218.29 260.12
  Q 218.93 260.18 219.00 259.54
  Q 219.19 257.67 218.41 256.22
  Q 218.03 255.50 217.53 256.14
  Z"
/>
<path fill="#343534" d="
  M 420.90 256.79
  Q 419.53 256.02 418.14 255.98
  A 0.57 0.57 0.0 0 1 417.63 255.20
  L 418.83 252.16
  Q 419.04 251.63 419.57 251.44
  Q 423.93 249.88 427.89 251.46
  Q 428.52 251.72 428.79 252.34
  Q 430.34 255.99 426.51 257.88
  A 0.79 0.78 43.8 0 0 426.54 259.30
  Q 428.00 259.96 429.63 259.96
  Q 440.35 259.97 450.64 260.08
  A 1.20 1.19 -89.5 0 0 451.85 258.88
  Q 451.84 251.76 449.98 245.47
  C 449.31 243.21 450.55 241.48 452.09 240.15
  A 0.60 0.60 0.0 0 1 453.00 240.30
  L 454.83 243.51
  Q 455.13 244.02 454.79 244.50
  Q 453.74 246.01 453.97 247.78
  Q 454.68 253.21 455.05 259.21
  C 455.29 263.08 452.24 264.57 449.00 264.55
  Q 439.30 264.50 429.29 264.54
  C 426.32 264.56 424.39 262.72 423.41 260.02
  A 0.39 0.39 0.0 0 0 422.78 259.87
  C 420.51 261.92 417.99 264.49 414.70 264.54
  C 412.22 264.58 407.14 265.14 405.44 263.50
  Q 404.48 262.57 404.23 263.88
  C 403.29 268.85 399.81 273.75 394.03 272.02
  Q 391.36 271.23 389.07 269.91
  Q 388.78 269.74 388.65 269.41
  Q 388.59 269.25 388.59 269.08
  A 0.86 0.86 0.0 0 1 389.68 268.24
  Q 397.03 270.24 401.98 263.36
  C 403.76 260.90 401.55 257.04 399.85 255.03
  A 0.81 0.81 0.0 0 1 399.74 254.14
  L 401.69 250.22
  A 0.68 0.68 0.0 0 1 402.93 250.28
  Q 404.47 254.22 404.98 258.04
  Q 405.25 260.01 407.23 260.03
  Q 411.96 260.08 415.68 259.88
  Q 417.35 259.78 420.92 257.39
  Q 421.41 257.07 420.90 256.79
  Z
  M 426.15 254.18
  A 0.47 0.47 0.0 0 0 425.82 253.38
  L 421.89 253.37
  A 0.47 0.47 0.0 0 0 421.64 254.24
  L 424.11 255.73
  A 0.47 0.47 0.0 0 0 424.69 255.66
  L 426.15 254.18
  Z"
/>
<path fill="#343534" d="
  M 465.58 266.35
  L 464.44 244.56
  A 0.35 0.35 0.0 0 1 464.52 244.33
  L 467.45 240.74
  A 0.35 0.35 0.0 0 1 468.07 240.94
  L 468.81 259.44
  A 0.35 0.35 0.0 0 1 468.79 259.58
  L 466.26 266.46
  A 0.35 0.35 0.0 0 1 465.58 266.35
  Z"
/>
<rect fill="#343534" x="-2.27" y="-2.26" transform="translate(238.21,243.17) rotate(-44.8)" width="4.54" height="4.52" rx="1.15"/>
<path fill="#343534" d="
  M 327.68 266.09
  L 326.55 244.59
  A 0.33 0.33 0.0 0 1 326.62 244.36
  L 329.63 240.62
  A 0.33 0.33 0.0 0 1 330.21 240.81
  L 330.94 259.88
  A 0.33 0.33 0.0 0 1 330.91 260.02
  L 328.32 266.20
  A 0.33 0.33 0.0 0 1 327.68 266.09
  Z"
/>
<path fill="#343534" d="
  M 723.15 256.18
  C 721.03 255.04 718.97 253.31 716.55 255.08
  Q 713.80 257.09 714.61 253.78
  Q 715.38 250.62 718.73 250.29
  C 721.80 249.98 724.33 252.93 727.08 254.10
  Q 728.87 254.86 731.20 254.94
  A 0.23 0.22 10.4 0 1 731.41 255.23
  L 730.15 259.14
  Q 730.05 259.44 729.74 259.43
  C 726.24 259.28 723.65 259.42 720.68 261.67
  C 718.14 263.59 715.12 264.51 711.90 264.54
  Q 704.90 264.61 698.30 264.41
  Q 697.54 264.39 696.82 264.24
  A 1.51 1.48 76.3 0 1 695.95 263.70
  Q 694.22 261.58 694.43 258.40
  Q 694.88 251.39 694.12 245.33
  Q 693.95 244.00 694.77 242.93
  L 696.12 241.15
  Q 697.20 239.73 697.50 241.49
  Q 698.86 249.48 697.77 258.14
  A 1.64 1.64 0.0 0 0 699.39 259.98
  Q 706.16 260.01 712.08 259.99
  C 716.59 259.97 719.49 258.54 723.14 256.66
  A 0.27 0.27 0.0 0 0 723.15 256.18
  Z"
/>
<path fill="#343534" d="
  M 283.62 245.05
  L 281.82 246.78
  Q 281.20 247.37 280.58 246.78
  L 278.76 245.03
  Q 278.01 244.32 278.74 243.59
  L 280.71 241.62
  Q 281.14 241.20 281.63 241.53
  Q 282.47 242.08 283.08 242.96
  A 0.94 0.94 0.0 0 0 284.52 243.10
  L 286.32 241.35
  Q 286.85 240.82 287.38 241.34
  L 289.09 243.00
  Q 289.96 243.83 289.12 244.70
  L 287.33 246.57
  Q 286.68 247.25 286.09 246.51
  Q 285.29 245.51 284.35 244.97
  Q 283.95 244.74 283.62 245.05
  Z"
/>
<path fill="#343534" d="
  M 147.77 257.03
  Q 149.00 256.38 147.77 255.73
  L 145.40 254.48
  Q 143.88 253.67 142.57 254.79
  Q 141.64 255.59 140.48 255.68
  Q 139.86 255.73 139.78 255.12
  C 139.39 252.22 142.15 250.02 144.82 250.24
  Q 147.06 250.42 149.07 252.05
  Q 152.33 254.69 156.02 254.92
  Q 157.10 254.99 156.72 256.01
  L 155.70 258.73
  A 1.19 1.19 0.0 0 1 154.41 259.50
  Q 150.47 258.95 147.69 260.76
  C 144.13 263.06 140.98 264.67 136.47 264.62
  C 132.92 264.58 127.57 265.40 125.54 261.86
  A 0.56 0.56 0.0 0 0 124.55 261.89
  Q 123.27 264.54 120.51 264.55
  Q 102.32 264.58 82.78 264.50
  Q 79.42 264.48 78.86 261.32
  Q 78.77 260.79 78.22 260.80
  Q 75.27 260.90 72.14 260.02
  Q 70.00 259.42 70.82 257.25
  Q 72.16 253.75 77.35 252.77
  Q 78.41 252.56 78.19 251.51
  L 77.82 249.77
  Q 77.67 249.03 78.14 248.43
  L 80.55 245.40
  A 0.29 0.29 0.0 0 1 81.07 245.55
  Q 81.79 252.61 82.02 258.92
  A 1.13 1.13 0.0 0 0 83.15 260.01
  Q 102.87 260.03 121.08 260.07
  C 122.70 260.08 123.37 258.59 122.89 257.13
  Q 122.37 255.55 122.03 254.13
  Q 121.81 253.25 122.26 252.45
  L 124.19 249.00
  Q 124.75 248.00 125.09 249.10
  Q 126.37 253.17 126.79 257.24
  A 3.06 3.05 88.0 0 0 129.71 259.97
  Q 135.50 260.18 139.67 259.93
  Q 142.68 259.74 147.77 257.03
  Z
  M 79.2592 256.9646
  A 2.25 1.07 -7.8 0 0 76.8848 256.2099
  A 2.25 1.07 -7.8 0 0 74.8008 257.5754
  A 2.25 1.07 -7.8 0 0 77.1752 258.3301
  A 2.25 1.07 -7.8 0 0 79.2592 256.9646
  Z"
/>
<path fill="#343534" d="
  M 652.54 259.98
  C 649.96 262.17 647.88 264.50 644.18 264.51
  Q 627.79 264.56 611.24 264.46
  Q 607.80 264.44 607.56 261.31
  A 0.61 0.60 85.7 0 0 606.92 260.75
  Q 603.51 260.96 600.37 259.91
  A 1.62 1.61 11.5 0 1 599.26 258.25
  C 599.54 254.67 603.06 253.37 606.05 252.70
  Q 606.79 252.54 606.85 251.79
  Q 606.92 250.93 606.40 250.21
  Q 606.09 249.76 606.33 249.28
  Q 607.40 247.16 609.16 245.49
  A 0.41 0.41 0.0 0 1 609.85 245.76
  L 610.65 259.17
  A 0.92 0.91 -1.6 0 0 611.57 260.03
  Q 627.29 259.93 643.76 260.03
  Q 647.22 260.05 650.68 257.41
  Q 651.13 257.06 650.64 256.77
  Q 649.33 255.99 647.91 255.99
  Q 647.43 255.99 647.50 255.52
  Q 647.78 253.70 648.75 251.92
  Q 648.97 251.53 649.39 251.39
  C 652.08 250.53 657.98 249.67 659.04 253.45
  C 659.61 255.49 657.83 257.10 656.23 257.99
  A 0.73 0.73 0.0 0 0 656.25 259.28
  Q 657.25 259.81 658.40 259.87
  Q 665.63 260.25 672.27 259.78
  C 673.67 259.68 674.67 258.80 674.97 257.42
  Q 675.71 254.04 677.57 251.58
  C 679.32 249.27 682.30 250.39 683.26 252.73
  Q 685.31 257.72 682.27 262.78
  Q 681.35 264.29 679.49 264.67
  Q 678.98 264.77 678.58 264.44
  L 676.26 262.52
  Q 675.80 262.14 675.33 262.50
  Q 672.78 264.43 670.72 264.48
  Q 666.17 264.58 659.49 264.57
  C 656.43 264.57 654.31 263.05 653.35 260.20
  Q 653.11 259.50 652.54 259.98
  Z
  M 655.72 254.21
  Q 655.77 253.16 654.46 253.39
  Q 654.01 253.47 653.55 253.38
  Q 652.45 253.16 651.43 253.61
  Q 650.74 253.91 651.43 254.21
  Q 652.29 254.57 652.99 255.19
  A 1.66 1.55 23.3 0 0 655.72 254.21
  Z
  M 679.12 255.66
  C 677.51 257.15 677.70 259.04 679.90 260.05
  Q 680.50 260.33 680.67 259.69
  Q 681.13 257.99 680.66 256.12
  A 0.94 0.93 61.5 0 0 679.12 255.66
  Z
  M 607.75 257.55
  L 607.54 256.23
  A 0.43 0.43 0.0 0 0 607.04 255.87
  L 606.96 255.89
  A 3.89 0.93 -9.1 0 0 603.27 257.42
  L 603.32 257.76
  A 3.89 0.93 -9.1 0 0 607.31 258.06
  L 607.39 258.05
  A 0.43 0.43 0.0 0 0 607.75 257.55
  Z"
/>
<path fill="#343534" d="
  M 381.63 259.65
  A 1.15 1.14 59.0 0 0 382.02 258.07
  L 379.79 254.41
  Q 379.39 253.75 379.66 253.03
  L 381.13 249.19
  Q 381.54 248.12 382.14 249.10
  C 384.43 252.87 385.97 256.41 384.28 260.73
  C 382.55 265.15 379.38 264.60 375.63 264.66
  Q 369.53 264.75 366.86 263.79
  C 361.73 261.93 363.95 256.07 366.52 253.02
  Q 366.80 252.68 367.23 252.80
  Q 367.77 252.95 368.03 253.48
  Q 368.30 254.01 367.98 254.52
  C 366.63 256.66 366.32 259.50 369.79 259.81
  Q 373.94 260.18 378.21 260.09
  C 379.33 260.07 380.65 260.23 381.63 259.65
  Z"
/>
<path fill="#343534" d="
  M 543.17 263.41
  Q 542.40 262.78 542.20 263.76
  C 541.28 268.48 538.04 273.50 532.50 272.17
  Q 529.64 271.48 527.14 270.06
  A 1.14 1.14 0.0 0 1 526.59 269.34
  Q 526.43 268.69 526.86 268.38
  Q 527.27 268.09 527.76 268.23
  Q 534.65 270.22 539.69 263.64
  C 541.67 261.06 539.68 257.45 538.00 255.30
  A 1.49 1.48 40.4 0 1 537.86 253.68
  L 539.64 250.31
  A 0.67 0.66 47.8 0 1 540.84 250.37
  Q 542.38 254.05 542.85 258.09
  A 2.19 2.19 0.0 0 0 545.01 260.03
  L 564.30 260.05
  A 1.64 1.64 0.0 0 0 565.77 257.68
  L 564.12 254.35
  Q 563.80 253.70 564.08 253.03
  L 565.64 249.19
  Q 565.97 248.40 566.50 249.07
  C 569.79 253.24 570.86 260.00 566.54 263.85
  A 2.68 2.64 -65.6 0 1 564.77 264.53
  Q 555.03 264.56 546.04 264.56
  C 544.95 264.56 543.99 264.09 543.17 263.41
  Z"
/>
<path fill="#343534" d="
  M 512.94 257.76
  C 510.95 256.37 508.59 257.25 506.74 258.55
  A 0.64 0.64 0.0 0 1 505.73 258.09
  C 505.64 257.14 505.73 255.93 506.36 255.17
  C 511.02 249.54 516.45 254.73 521.86 254.82
  Q 522.57 254.83 522.34 255.50
  L 521.25 258.71
  Q 521.03 259.37 520.34 259.36
  C 516.01 259.30 508.04 262.45 509.04 267.78
  Q 509.34 269.37 510.51 270.38
  C 514.01 273.42 518.63 272.10 522.30 270.07
  Q 526.31 267.85 523.70 271.62
  C 519.75 277.32 509.46 277.84 506.40 270.84
  C 503.73 264.74 507.91 261.72 512.92 258.67
  Q 513.63 258.24 512.94 257.76
  Z"
/>
<rect fill="#343534" x="-2.27" y="-2.29" transform="translate(515.96,266.87) rotate(-44.9)" width="4.54" height="4.58" rx="1.21"/>
<rect fill="#343534" x="-2.24" y="-2.28" transform="translate(147.20,267.48) rotate(-44.4)" width="4.48" height="4.56" rx="1.02"/>
<rect fill="#343534" x="-2.25" y="-2.22" transform="translate(721.80,267.63) rotate(-44.2)" width="4.50" height="4.44" rx="0.94"/>
<rect fill="#343534" x="-2.26" y="-2.23" transform="translate(565.52,270.04) rotate(44.4)" width="4.52" height="4.46" rx="1.12"/>
<rect fill="#343534" x="-2.27" y="-2.26" transform="translate(376.11,271.50) rotate(-43.4)" width="4.54" height="4.52" rx="1.24"/>
<path fill="#343534" d="
  M 125.08 273.84
  L 123.49 275.39
  A 0.93 0.93 0.0 0 1 122.19 275.39
  L 120.28 273.50
  Q 119.69 272.91 120.29 272.33
  L 122.43 270.22
  Q 122.98 269.68 123.49 270.26
  Q 124.04 270.87 124.64 271.45
  Q 125.38 272.19 126.18 271.65
  Q 126.81 271.22 127.23 270.52
  Q 127.94 269.33 129.08 270.11
  Q 130.01 270.74 130.70 271.68
  Q 131.41 272.66 130.57 273.52
  L 129.26 274.87
  Q 128.38 275.76 127.49 274.90
  L 126.40 273.84
  Q 125.74 273.21 125.08 273.84
  Z"
/>
<path fill="#4fb3b3" d="
  M 111.8544 299.7046
  A 9.05 9.05 0.0 0 1 102.7729 308.7230
  L 101.0329 308.7169
  A 9.05 9.05 0.0 0 1 92.0145 299.6354
  L 92.0256 296.4754
  A 9.05 9.05 0.0 0 1 101.1071 287.4570
  L 102.8471 287.4631
  A 9.05 9.05 0.0 0 1 111.8655 296.5446
  L 111.8544 299.7046
  Z
  M 101.9000 304.8000
  A 6.68 4.57 90.0 0 0 106.4700 298.1200
  A 6.68 4.57 90.0 0 0 101.9000 291.4400
  A 6.68 4.57 90.0 0 0 97.3300 298.1200
  A 6.68 4.57 90.0 0 0 101.9000 304.8000
  Z"
/>
<path fill="#4fb3b3" d="
  M 409.13 299.72
  A 9.03 9.03 0.0 0 1 400.10 308.75
  L 398.42 308.75
  A 9.03 9.03 0.0 0 1 389.39 299.72
  L 389.39 296.46
  A 9.03 9.03 0.0 0 1 398.42 287.43
  L 400.10 287.43
  A 9.03 9.03 0.0 0 1 409.13 296.46
  L 409.13 299.72
  Z
  M 399.2367 304.8000
  A 6.68 4.59 90.2 0 0 403.8500 298.1360
  A 6.68 4.59 90.2 0 0 399.2833 291.4400
  A 6.68 4.59 90.2 0 0 394.6700 298.1040
  A 6.68 4.59 90.2 0 0 399.2367 304.8000
  Z"
/>
<path fill="#4fb3b3" d="
  M 446.84 299.70
  A 9.04 9.04 0.0 0 1 437.80 308.74
  L 436.10 308.74
  A 9.04 9.04 0.0 0 1 427.06 299.70
  L 427.06 296.48
  A 9.04 9.04 0.0 0 1 436.10 287.44
  L 437.80 287.44
  A 9.04 9.04 0.0 0 1 446.84 296.48
  L 446.84 299.70
  Z
  M 436.9717 304.7800
  A 6.68 4.59 89.9 0 0 441.5500 298.0920
  A 6.68 4.59 89.9 0 0 436.9483 291.4200
  A 6.68 4.59 89.9 0 0 432.3700 298.1080
  A 6.68 4.59 89.9 0 0 436.9717 304.7800
  Z"
/>
<path fill="#4fb3b3" d="
  M 146.44 301.12
  L 144.18 301.12
  A 1.10 1.10 0.0 0 1 143.08 300.06
  L 143.02 298.32
  A 1.17 1.17 0.0 0 1 144.18 297.11
  L 151.51 297.02
  Q 152.26 297.01 152.26 297.76
  L 152.27 306.75
  Q 152.27 307.35 151.70 307.55
  C 143.05 310.48 133.78 308.86 133.90 297.47
  C 134.01 287.69 144.31 285.62 151.46 288.79
  Q 152.28 289.16 152.28 290.05
  L 152.27 293.73
  Q 152.26 294.74 151.48 294.10
  C 149.43 292.42 146.65 291.06 144.05 291.60
  C 140.47 292.34 138.97 296.11 139.53 299.49
  Q 140.41 304.87 146.29 304.94
  Q 147.26 304.96 147.26 303.98
  L 147.26 301.94
  A 0.82 0.82 0.0 0 0 146.44 301.12
  Z"
/>
<path fill="#4fb3b3" d="
  M 343.54 293.87
  C 337.11 288.84 331.78 292.92 333.10 299.98
  C 334.18 305.79 340.08 305.87 343.63 302.20
  Q 344.05 301.76 344.26 302.34
  Q 344.58 303.23 344.54 304.28
  C 344.49 305.64 344.78 307.20 343.20 307.79
  C 334.81 310.92 327.15 307.45 327.47 297.38
  C 327.77 288.05 336.42 285.41 343.81 288.73
  Q 344.17 288.89 344.26 289.27
  Q 344.73 291.18 344.41 293.52
  Q 344.28 294.45 343.54 293.87
  Z"
/>
<path fill="#4fb3b3" d="
  M 461.16 301.08
  L 458.63 301.14
  Q 457.85 301.16 457.85 300.38
  L 457.88 297.93
  Q 457.88 296.99 458.82 297.00
  L 466.32 297.08
  A 0.72 0.72 0.0 0 1 467.03 297.81
  L 467.02 306.21
  Q 467.02 307.39 465.91 307.75
  C 461.47 309.17 455.35 309.68 451.61 306.22
  C 448.26 303.12 447.82 297.26 449.43 293.38
  C 452.20 286.73 460.33 286.34 466.11 288.72
  A 1.49 1.48 11.2 0 1 467.02 290.07
  L 467.04 293.51
  Q 467.05 294.60 466.16 293.97
  C 452.84 284.47 449.66 305.62 460.99 304.91
  A 0.95 0.93 -83.9 0 0 461.84 304.21
  Q 462.17 302.96 461.89 301.66
  Q 461.77 301.07 461.16 301.08
  Z"
/>
<path fill="#4fb3b3" d="
  M 489.27 294.75
  Q 487.82 297.67 489.05 301.02
  C 490.91 306.09 495.97 305.38 499.31 302.28
  Q 500.37 301.30 500.29 302.74
  L 500.11 306.04
  Q 500.04 307.26 498.90 307.72
  C 489.02 311.67 481.32 305.43 483.49 294.98
  C 485.14 287.03 493.56 285.96 499.80 288.92
  Q 500.01 289.02 500.06 289.25
  Q 500.52 291.76 499.98 294.16
  A 0.06 0.06 0.0 0 1 499.88 294.19
  Q 492.33 288.59 489.27 294.75
  Z"
/>
<path fill="#4fb3b3" d="
  M 590.25 291.52
  L 588.95 291.49
  A 0.85 0.84 88.5 0 1 588.13 290.71
  L 587.97 288.64
  A 0.89 0.89 0.0 0 1 588.86 287.68
  L 598.85 287.72
  Q 599.92 287.72 599.53 288.71
  Q 599.15 289.67 599.26 290.65
  A 0.82 0.81 -0.9 0 1 598.39 291.54
  Q 597.54 291.48 596.77 291.67
  A 0.59 0.58 83.1 0 0 596.33 292.24
  L 596.41 303.82
  Q 596.41 304.49 597.07 304.62
  L 598.63 304.93
  Q 599.13 305.02 599.20 305.52
  L 599.46 307.38
  Q 599.60 308.35 598.61 308.35
  L 589.00 308.32
  Q 588.07 308.32 588.08 307.38
  L 588.11 305.74
  Q 588.13 304.65 589.21 304.74
  Q 590.01 304.80 590.73 304.53
  A 0.60 0.59 80.3 0 0 591.12 303.97
  L 590.98 292.25
  Q 590.97 291.54 590.25 291.52
  Z"
/>
<path fill="#4fb3b3" d="
  M 664.65 294.70
  C 667.96 295.81 674.25 296.37 674.46 301.08
  C 674.84 309.59 665.12 309.77 659.31 307.75
  Q 658.18 307.36 658.12 306.17
  L 657.96 303.29
  Q 657.89 301.91 659.08 302.61
  C 661.91 304.27 664.92 305.70 668.12 304.19
  A 1.52 1.52 0.0 0 0 667.91 301.36
  Q 665.01 300.51 662.23 299.63
  C 658.50 298.46 656.93 294.30 658.97 291.03
  C 661.62 286.79 667.83 287.01 672.10 288.17
  Q 673.52 288.55 673.57 290.02
  L 673.65 292.51
  Q 673.70 293.98 672.45 293.20
  Q 667.78 290.27 664.43 292.06
  A 1.44 1.44 0.0 0 0 664.65 294.70
  Z"
/>
<path fill="#4fb3b3" d="
  M 87.36 297.30
  Q 92.57 300.76 88.90 305.92
  Q 87.22 308.28 83.69 308.31
  Q 78.95 308.35 74.45 308.31
  Q 73.85 308.31 73.85 307.70
  L 73.86 288.44
  Q 73.86 287.79 74.51 287.76
  Q 79.65 287.56 84.18 287.98
  C 88.99 288.42 90.48 292.93 87.26 296.58
  Q 86.89 297.00 87.36 297.30
  Z
  M 79.03 292.61
  L 79.07 295.10
  A 0.88 0.88 0.0 0 0 79.96 295.97
  L 80.23 295.97
  A 3.29 2.00 -0.9 0 0 83.49 293.92
  L 83.49 293.66
  A 3.29 2.00 -0.9 0 0 80.17 291.71
  L 79.90 291.71
  A 0.88 0.88 0.0 0 0 79.03 292.61
  Z
  M 79.06 300.38
  L 79.04 303.66
  A 0.91 0.91 0.0 0 0 79.94 304.58
  L 80.62 304.58
  A 4.25 2.36 0.4 0 0 84.89 302.25
  L 84.89 301.87
  A 4.25 2.36 0.4 0 0 80.66 299.48
  L 79.98 299.48
  A 0.91 0.91 0.0 0 0 79.06 300.38
  Z"
/>
<path fill="#4fb3b3" d="
  M 120.03 302.44
  Q 119.86 305.15 120.06 308.08
  Q 120.07 308.29 119.85 308.29
  L 115.02 308.30
  A 0.29 0.28 -0.0 0 1 114.73 308.02
  L 114.73 288.46
  Q 114.73 287.86 115.33 287.82
  Q 121.34 287.44 125.89 288.08
  C 131.95 288.92 132.31 296.14 127.77 299.27
  Q 127.08 299.74 127.60 300.40
  L 133.20 307.50
  Q 133.87 308.35 132.78 308.34
  L 128.43 308.28
  Q 127.15 308.26 126.39 307.23
  L 122.32 301.76
  Q 120.24 298.96 120.03 302.44
  Z
  M 119.98 292.24
  L 119.98 296.66
  A 0.53 0.53 0.0 0 0 120.51 297.19
  L 121.67 297.19
  A 3.57 2.46 0.0 0 0 125.24 294.73
  L 125.24 294.17
  A 3.57 2.46 0.0 0 0 121.67 291.71
  L 120.51 291.71
  A 0.53 0.53 0.0 0 0 119.98 292.24
  Z"
/>
<path fill="#4fb3b3" d="
  M 168.50 304.86
  L 167.74 307.39
  Q 167.43 308.42 166.35 308.39
  L 162.99 308.28
  Q 162.05 308.25 162.35 307.36
  L 168.76 288.45
  A 1.07 1.07 0.0 0 1 169.79 287.72
  L 174.12 287.76
  Q 174.76 287.76 174.97 288.38
  L 181.34 307.32
  Q 181.71 308.39 180.57 308.36
  L 176.99 308.26
  Q 175.77 308.22 175.62 307.00
  Q 175.31 304.37 174.62 304.34
  Q 171.98 304.21 169.22 304.31
  Q 168.66 304.33 168.50 304.86
  Z
  M 169.98 299.73
  A 0.40 0.40 0.0 0 0 170.35 300.26
  L 173.17 300.30
  A 0.40 0.40 0.0 0 0 173.56 299.80
  L 172.24 295.06
  A 0.40 0.40 0.0 0 0 171.47 295.05
  L 169.98 299.73
  Z"
/>
<path fill="#4fb3b3" d="
  M 189.61 304.41
  L 196.56 304.35
  A 0.67 0.67 0.0 0 1 197.24 305.02
  L 197.26 307.61
  A 0.67 0.67 0.0 0 1 196.60 308.28
  L 184.07 308.35
  A 0.67 0.67 0.0 0 1 183.40 307.68
  L 183.40 288.39
  A 0.67 0.67 0.0 0 1 184.08 287.72
  L 188.31 287.75
  A 0.67 0.67 0.0 0 1 188.98 288.43
  L 188.93 303.73
  A 0.67 0.67 0.0 0 0 189.61 304.41
  Z"
/>
<path fill="#4fb3b3" d="
  M 211.94 305.05
  L 211.25 307.35
  Q 210.94 308.35 209.90 308.36
  L 206.61 308.36
  Q 205.54 308.36 205.89 307.35
  L 212.25 288.57
  A 1.26 1.24 -80.5 0 1 213.43 287.72
  L 217.62 287.73
  Q 218.27 287.74 218.48 288.36
  L 224.94 307.49
  Q 225.23 308.35 224.32 308.34
  L 220.76 308.30
  A 1.75 1.74 0.8 0 1 219.04 306.54
  Q 219.05 305.61 218.59 304.82
  A 1.07 1.06 74.7 0 0 217.67 304.29
  L 212.95 304.29
  Q 212.17 304.29 211.94 305.05
  Z
  M 213.60 299.81
  A 0.39 0.39 0.0 0 0 213.98 300.30
  L 216.70 300.28
  A 0.39 0.39 0.0 0 0 217.07 299.77
  L 215.66 295.12
  A 0.39 0.39 0.0 0 0 214.91 295.13
  L 213.60 299.81
  Z"
/>
<path fill="#4fb3b3" d="
  M 245.92 306.26
  L 251.94 288.25
  Q 252.12 287.70 252.71 287.70
  L 257.15 287.71
  A 1.07 1.05 -8.9 0 1 258.14 288.42
  L 264.45 307.19
  Q 264.87 308.44 263.56 308.38
  L 260.24 308.23
  Q 259.04 308.18 258.89 306.99
  Q 258.74 305.80 258.14 304.81
  Q 257.82 304.28 257.20 304.28
  L 252.38 304.28
  Q 251.78 304.28 251.61 304.86
  L 250.84 307.44
  A 1.31 1.30 -81.4 0 1 249.58 308.38
  L 240.56 308.29
  A 2.14 2.12 -18.4 0 1 238.89 307.46
  L 234.11 301.16
  A 1.09 1.07 -12.4 0 0 233.44 300.74
  Q 232.30 300.52 232.29 301.51
  Q 232.24 304.81 232.29 307.72
  Q 232.30 308.40 231.61 308.39
  L 227.79 308.35
  Q 227.01 308.34 227.00 307.55
  L 226.99 288.47
  Q 226.99 287.86 227.60 287.82
  Q 234.37 287.41 238.36 288.12
  Q 242.12 288.79 243.02 292.49
  C 243.74 295.47 242.15 297.53 239.96 299.33
  A 0.71 0.70 -39.5 0 0 239.86 300.32
  L 244.73 306.47
  A 0.69 0.69 0.0 0 0 245.92 306.26
  Z
  M 232.26 292.29
  L 232.28 296.53
  A 0.61 0.61 0.0 0 0 232.90 297.13
  L 234.00 297.13
  A 3.57 2.50 -0.4 0 0 237.55 294.60
  L 237.55 294.14
  A 3.57 2.50 -0.4 0 0 233.96 291.67
  L 232.86 291.67
  A 0.61 0.61 0.0 0 0 232.26 292.29
  Z
  M 253.28 299.68
  A 0.48 0.48 0.0 0 0 253.75 300.29
  L 256.18 300.27
  A 0.48 0.48 0.0 0 0 256.64 299.66
  L 255.39 295.24
  A 0.48 0.48 0.0 0 0 254.47 295.25
  L 253.28 299.68
  Z"
/>
<path fill="#4fb3b3" d="
  M 280.17 297.36
  Q 283.90 299.16 283.06 303.04
  Q 281.97 308.04 276.70 308.28
  Q 272.34 308.47 267.18 308.30
  A 0.60 0.60 0.0 0 1 266.60 307.70
  L 266.53 288.53
  Q 266.52 287.88 267.18 287.83
  Q 272.46 287.40 276.83 287.99
  Q 282.75 288.79 281.58 294.22
  C 281.38 295.15 280.59 295.91 280.00 296.64
  Q 279.63 297.11 280.17 297.36
  Z
  M 271.85 292.59
  L 271.87 294.95
  A 0.84 0.84 0.0 0 0 272.71 295.78
  L 273.77 295.77
  A 2.60 1.88 -0.4 0 0 276.36 293.87
  L 276.36 293.59
  A 2.60 1.88 -0.4 0 0 273.75 291.73
  L 272.69 291.74
  A 0.84 0.84 0.0 0 0 271.85 292.59
  Z
  M 271.90 300.57
  L 271.84 303.53
  A 1.05 1.05 0.0 0 0 272.88 304.60
  L 273.85 304.62
  A 3.68 2.41 1.0 0 0 277.57 302.27
  L 277.57 302.03
  A 3.68 2.41 1.0 0 0 273.93 299.56
  L 272.96 299.54
  A 1.05 1.05 0.0 0 0 271.90 300.57
  Z"
/>
<path fill="#4fb3b3" d="
  M 297.45 292.03
  L 292.60 291.92
  A 0.68 0.68 0.0 0 1 291.94 291.25
  L 291.93 288.38
  A 0.68 0.68 0.0 0 1 292.62 287.70
  L 308.91 287.81
  A 0.68 0.68 0.0 0 1 309.57 288.61
  L 309.10 291.33
  A 0.68 0.68 0.0 0 1 308.41 291.89
  L 304.20 291.77
  A 0.68 0.68 0.0 0 0 303.50 292.44
  L 303.36 307.62
  A 0.68 0.68 0.0 0 1 302.67 308.29
  L 298.99 308.27
  A 0.68 0.68 0.0 0 1 298.31 307.59
  L 298.12 292.70
  A 0.68 0.68 0.0 0 0 297.45 292.03
  Z"
/>
<path fill="#4fb3b3" d="
  M 317.37 304.30
  L 324.48 304.40
  A 0.79 0.79 0.0 0 1 325.26 305.17
  L 325.30 307.49
  A 0.79 0.79 0.0 0 1 324.52 308.30
  L 312.06 308.41
  A 0.79 0.79 0.0 0 1 311.26 307.62
  L 311.24 288.49
  A 0.79 0.79 0.0 0 1 312.03 287.70
  L 324.53 287.77
  A 0.79 0.79 0.0 0 1 325.32 288.60
  L 325.19 291.21
  A 0.79 0.79 0.0 0 1 324.39 291.96
  L 317.34 291.89
  A 0.79 0.79 0.0 0 0 316.54 292.63
  L 316.43 294.44
  A 0.79 0.79 0.0 0 0 317.20 295.28
  L 323.95 295.41
  A 0.79 0.79 0.0 0 1 324.73 296.22
  L 324.68 298.57
  A 0.79 0.79 0.0 0 1 323.90 299.35
  L 317.41 299.43
  A 0.79 0.79 0.0 0 0 316.63 300.21
  L 316.59 303.50
  A 0.79 0.79 0.0 0 0 317.37 304.30
  Z"
/>
<path fill="#4fb3b3" d="
  M 353.37 295.37
  L 358.75 295.37
  A 0.68 0.68 0.0 0 0 359.43 294.67
  L 359.29 288.43
  A 0.68 0.68 0.0 0 1 359.97 287.73
  L 364.19 287.73
  A 0.68 0.68 0.0 0 1 364.87 288.41
  L 364.88 307.62
  A 0.68 0.68 0.0 0 1 364.21 308.30
  L 359.99 308.37
  A 0.68 0.68 0.0 0 1 359.30 307.68
  L 359.36 300.04
  A 0.68 0.68 0.0 0 0 358.68 299.36
  L 353.34 299.40
  A 0.68 0.68 0.0 0 0 352.67 300.09
  L 352.79 307.64
  A 0.68 0.68 0.0 0 1 352.11 308.34
  L 348.14 308.36
  A 0.68 0.68 0.0 0 1 347.46 307.69
  L 347.45 288.40
  A 0.68 0.68 0.0 0 1 348.13 287.72
  L 352.09 287.74
  A 0.68 0.68 0.0 0 1 352.77 288.43
  L 352.69 294.68
  A 0.68 0.68 0.0 0 0 353.37 295.37
  Z"
/>
<path fill="#4fb3b3" d="
  M 374.48 295.75
  Q 373.61 294.09 373.61 295.97
  L 373.61 307.82
  A 0.55 0.55 0.0 0 1 373.05 308.37
  L 369.24 308.27
  Q 368.73 308.26 368.73 307.74
  L 368.73 288.51
  Q 368.73 287.74 369.49 287.74
  L 374.51 287.73
  Q 375.26 287.73 375.63 288.38
  Q 378.18 292.82 380.63 297.52
  Q 380.89 298.02 381.38 298.28
  A 0.27 0.27 0.0 0 0 381.78 298.04
  L 381.71 288.27
  Q 381.71 287.75 382.23 287.75
  L 386.01 287.74
  A 0.53 0.52 0.0 0 1 386.54 288.26
  L 386.53 307.68
  Q 386.53 308.39 385.81 308.36
  C 384.21 308.30 381.56 308.87 380.65 307.20
  Q 377.35 301.20 374.48 295.75
  Z"
/>
<path fill="#4fb3b3" d="
  M 425.98 305.01
  L 426.03 307.57
  A 0.72 0.72 0.0 0 1 425.31 308.31
  L 412.87 308.32
  A 0.72 0.72 0.0 0 1 412.15 307.60
  L 412.13 288.48
  A 0.72 0.72 0.0 0 1 412.84 287.76
  L 416.74 287.73
  A 0.72 0.72 0.0 0 1 417.47 288.45
  L 417.42 303.69
  A 0.72 0.72 0.0 0 0 418.15 304.41
  L 425.25 304.31
  A 0.72 0.72 0.0 0 1 425.98 305.01
  Z"
/>
<path fill="#4fb3b3" d="
  M 478.08 292.51
  L 478.12 303.62
  A 0.94 0.92 -78.6 0 0 478.68 304.48
  Q 479.16 304.70 479.68 304.75
  Q 480.40 304.84 480.72 305.48
  Q 481.21 306.48 481.16 307.60
  Q 481.13 308.28 480.45 308.29
  L 470.52 308.37
  Q 469.64 308.38 469.74 307.51
  L 469.96 305.50
  Q 470.04 304.78 470.76 304.77
  Q 471.50 304.76 472.19 304.51
  Q 472.69 304.32 472.70 303.79
  L 472.73 292.44
  Q 472.74 291.68 471.99 291.54
  Q 471.47 291.43 470.92 291.51
  Q 469.76 291.67 469.75 290.49
  L 469.73 288.49
  Q 469.73 287.72 470.51 287.72
  L 480.26 287.76
  Q 481.26 287.76 481.17 288.76
  L 481.02 290.33
  Q 480.93 291.34 479.92 291.47
  L 478.86 291.61
  Q 478.07 291.71 478.08 292.51
  Z"
/>
<path fill="#4fb3b3" d="
  M 507.25 304.77
  L 506.34 307.87
  A 0.70 0.70 0.0 0 1 505.66 308.37
  L 501.78 308.32
  A 0.70 0.70 0.0 0 1 501.13 307.40
  L 507.60 288.20
  A 0.70 0.70 0.0 0 1 508.26 287.72
  L 513.00 287.72
  A 0.70 0.70 0.0 0 1 513.66 288.20
  L 520.16 307.45
  A 0.70 0.70 0.0 0 1 519.47 308.38
  L 515.35 308.25
  A 0.70 0.70 0.0 0 1 514.70 307.74
  L 513.85 304.79
  A 0.70 0.70 0.0 0 0 513.17 304.28
  L 507.92 304.27
  A 0.70 0.70 0.0 0 0 507.25 304.77
  Z
  M 508.72 299.81
  A 0.34 0.34 0.0 0 0 509.03 300.26
  L 512.06 300.31
  A 0.34 0.34 0.0 0 0 512.39 299.87
  L 510.95 295.23
  A 0.34 0.34 0.0 0 0 510.30 295.22
  L 508.72 299.81
  Z"
/>
<path fill="#4fb3b3" d="
  M 528.36 304.43
  L 535.40 304.32
  A 0.72 0.72 0.0 0 1 536.13 305.04
  L 536.13 307.62
  A 0.72 0.72 0.0 0 1 535.41 308.34
  L 523.09 308.35
  A 0.72 0.72 0.0 0 1 522.37 307.63
  L 522.36 288.46
  A 0.72 0.72 0.0 0 1 523.07 287.74
  L 526.94 287.71
  A 0.72 0.72 0.0 0 1 527.67 288.43
  L 527.63 303.71
  A 0.72 0.72 0.0 0 0 528.36 304.43
  Z"
/>
<path fill="#4fb3b3" d="
  M 554.46 304.78
  Q 555.33 305.02 556.09 304.62
  Q 558.31 303.46 558.30 300.97
  L 558.28 288.48
  Q 558.28 287.74 559.02 287.73
  L 562.98 287.73
  Q 563.49 287.72 563.50 288.23
  Q 563.68 295.77 563.45 301.96
  C 563.21 308.34 557.03 309.60 551.86 308.47
  Q 546.46 307.30 546.32 301.54
  Q 546.17 295.72 546.14 288.61
  Q 546.14 287.75 546.99 287.74
  L 550.83 287.72
  A 0.86 0.85 89.7 0 1 551.69 288.58
  L 551.66 301.10
  Q 551.66 304.01 554.46 304.78
  Z"
/>
<path fill="#4fb3b3" d="
  M 572.28 295.19
  A 0.15 0.15 0.0 0 0 572.03 295.30
  L 572.11 307.72
  Q 572.12 308.31 571.53 308.31
  L 567.78 308.33
  A 0.55 0.55 0.0 0 1 567.23 307.78
  L 567.26 288.47
  A 0.77 0.77 0.0 0 1 568.03 287.70
  L 573.18 287.73
  A 1.04 1.03 -14.0 0 1 574.07 288.26
  L 579.37 297.81
  Q 580.36 299.57 580.32 297.55
  L 580.19 288.42
  A 0.65 0.65 0.0 0 1 580.83 287.76
  L 584.42 287.73
  Q 585.11 287.73 585.11 288.42
  L 585.08 307.70
  Q 585.07 308.32 584.46 308.30
  C 582.31 308.22 580.13 309.11 578.86 306.72
  Q 576.06 301.48 573.20 296.33
  Q 572.84 295.68 572.28 295.19
  Z"
/>
<path fill="#4fb3b3" d="
  M 610.45 300.11
  L 614.31 288.01
  A 0.40 0.40 0.0 0 1 614.69 287.73
  L 619.34 287.69
  A 0.40 0.40 0.0 0 1 619.73 288.22
  L 612.86 308.09
  A 0.40 0.40 0.0 0 1 612.48 308.36
  L 607.46 308.33
  A 0.40 0.40 0.0 0 1 607.09 308.06
  L 600.30 288.36
  A 0.40 0.40 0.0 0 1 600.66 287.83
  L 605.36 287.70
  A 0.40 0.40 0.0 0 1 605.75 287.97
  L 609.69 300.12
  A 0.40 0.40 0.0 0 0 610.45 300.11
  Z"
/>
<path fill="#4fb3b3" d="
  M 626.75 300.10
  L 626.76 303.64
  A 0.70 0.70 0.0 0 0 627.46 304.34
  L 634.81 304.35
  A 0.70 0.70 0.0 0 1 635.51 305.05
  L 635.51 307.62
  A 0.70 0.70 0.0 0 1 634.81 308.32
  L 622.19 308.34
  A 0.70 0.70 0.0 0 1 621.49 307.64
  L 621.46 288.42
  A 0.70 0.70 0.0 0 1 622.16 287.72
  L 634.84 287.74
  A 0.70 0.70 0.0 0 1 635.54 288.45
  L 635.47 291.34
  A 0.70 0.70 0.0 0 1 634.77 292.02
  L 627.49 291.97
  A 0.70 0.70 0.0 0 0 626.79 292.63
  L 626.69 294.53
  A 0.70 0.70 0.0 0 0 627.38 295.26
  L 634.11 295.37
  A 0.70 0.70 0.0 0 1 634.80 296.00
  L 635.06 298.64
  A 0.70 0.70 0.0 0 1 634.36 299.41
  L 627.45 299.40
  A 0.70 0.70 0.0 0 0 626.75 300.10
  Z"
/>
<path fill="#4fb3b3" d="
  M 644.02 302.79
  L 644.03 307.77
  A 0.55 0.55 0.0 0 1 643.48 308.33
  L 639.29 308.33
  Q 638.75 308.32 638.75 307.79
  L 638.74 288.48
  Q 638.74 287.81 639.41 287.78
  Q 644.98 287.53 649.54 287.97
  C 654.26 288.42 656.18 293.17 653.96 297.14
  C 653.38 298.18 652.47 298.65 651.65 299.45
  Q 651.23 299.87 651.60 300.33
  L 657.15 307.39
  Q 657.86 308.30 656.71 308.30
  L 652.37 308.29
  Q 651.21 308.29 650.52 307.37
  L 646.51 301.97
  Q 644.01 298.59 644.02 302.79
  Z
  M 644.00 292.43
  L 644.04 296.41
  A 0.71 0.71 0.0 0 0 644.76 297.11
  L 645.88 297.10
  A 3.43 2.45 -0.7 0 0 649.28 294.61
  L 649.28 294.11
  A 3.43 2.45 -0.7 0 0 645.82 291.70
  L 644.70 291.71
  A 0.71 0.71 0.0 0 0 644.00 292.43
  Z"
/>
<path fill="#4fb3b3" d="
  M 687.51 289.52
  Q 687.39 289.95 687.39 290.40
  Q 687.38 290.96 686.84 291.12
  L 685.03 291.64
  Q 684.41 291.82 684.43 292.47
  L 684.70 303.48
  Q 684.72 304.08 685.24 304.37
  Q 687.05 305.37 687.11 307.45
  A 0.93 0.93 0.0 0 1 686.17 308.40
  L 676.87 308.27
  Q 676.34 308.27 676.19 307.75
  Q 675.85 306.59 676.33 305.56
  Q 676.57 305.03 677.14 304.85
  L 678.24 304.49
  Q 678.80 304.31 678.82 303.73
  Q 679.02 298.62 678.92 292.87
  Q 678.90 291.36 677.40 291.46
  A 1.10 1.08 -5.9 0 1 676.24 290.53
  L 676.04 289.06
  Q 675.85 287.74 677.19 287.73
  L 710.26 287.70
  Q 711.35 287.70 711.86 288.66
  L 714.84 294.19
  A 0.48 0.48 0.0 0 0 715.69 294.18
  L 718.68 288.39
  Q 719.03 287.71 719.80 287.72
  L 724.23 287.75
  Q 725.00 287.75 724.61 288.42
  Q 721.90 293.06 718.95 297.99
  C 717.43 300.55 717.64 304.64 717.70 307.54
  Q 717.71 308.27 716.99 308.28
  L 713.29 308.31
  Q 712.69 308.32 712.67 307.72
  C 712.54 304.61 712.98 301.09 711.42 298.32
  Q 709.13 294.23 706.53 290.10
  Q 705.87 289.05 705.70 290.27
  L 705.53 291.53
  Q 705.46 292.03 704.96 292.01
  L 700.58 291.90
  Q 699.81 291.89 699.80 292.67
  L 699.65 307.38
  Q 699.65 308.28 698.75 308.29
  L 695.49 308.33
  Q 694.64 308.35 694.63 307.50
  L 694.41 293.15
  Q 694.39 292.03 693.28 291.97
  L 688.90 291.71
  Q 687.37 291.62 687.95 290.20
  Q 688.10 289.85 687.99 289.51
  Q 687.74 288.72 687.51 289.52
  Z"
/>
</svg>
