<?xml version="1.0" encoding="UTF-8" standalone="no"?>
<!DOCTYPE svg PUBLIC "-//W3C//DTD SVG 1.1//EN" "http://www.w3.org/Graphics/SVG/1.1/DTD/svg11.dtd">
<svg xmlns="http://www.w3.org/2000/svg" version="1.1" viewBox="0.00 0.00 64.00 64.00">
<path fill="#000000" d="
  M 10.27 0.00
  L 12.84 0.00
  Q 20.67 1.38 22.55 7.98
  C 27.07 23.80 3.28 29.73 0.00 12.86
  L 0.00 10.20
  Q 1.72 1.69 10.27 0.00
  Z
  M 20.60 11.56
  A 9.04 9.04 0.0 0 0 11.56 2.52
  A 9.04 9.04 0.0 0 0 2.52 11.56
  A 9.04 9.04 0.0 0 0 11.56 20.60
  A 9.04 9.04 0.0 0 0 20.60 11.56
  Z"
/>
<path fill="#000000" d="
  M 13.22 11.46
  L 14.34 12.58
  Q 14.71 12.95 14.66 13.47
  Q 14.56 14.43 13.74 14.61
  Q 13.21 14.73 12.62 14.30
  C 9.35 11.92 10.24 8.89 10.36 5.34
  A 1.11 1.11 0.0 0 1 11.64 4.28
  L 11.98 4.33
  A 0.95 0.95 0.0 0 1 12.79 5.27
  L 12.81 10.47
  A 1.40 1.40 0.0 0 0 13.22 11.46
  Z"
/>
<path fill="#000000" d="
  M 64.00 41.97
  L 64.00 64.00
  L 0.00 64.00
  L 0.00 57.01
  C 1.83 56.09 4.39 56.62 6.43 56.51
  Q 6.91 56.48 6.95 56.01
  Q 7.26 52.65 10.56 52.00
  Q 11.01 51.91 11.01 51.45
  L 11.00 50.05
  Q 10.99 49.51 10.46 49.50
  L 0.00 49.25
  L 0.00 27.70
  L 10.01 27.20
  A 0.90 0.89 -0.3 0 1 10.95 28.13
  L 10.93 28.45
  Q 10.88 29.59 9.74 29.59
  L 3.08 29.58
  Q 2.50 29.58 2.50 30.17
  L 2.50 45.95
  Q 2.50 47.15 3.70 47.15
  L 10.04 47.14
  Q 11.22 47.14 11.07 45.97
  C 10.77 43.73 10.49 39.56 12.45 38.00
  C 15.31 35.71 18.46 38.07 18.53 41.50
  Q 18.59 44.78 18.37 46.12
  Q 18.20 47.15 19.25 47.15
  L 25.68 47.14
  Q 27.00 47.14 27.00 45.82
  L 27.00 29.80
  A 0.23 0.22 -0.0 0 0 26.77 29.58
  L 19.51 29.58
  A 0.95 0.95 0.0 0 1 18.56 28.58
  L 18.58 28.28
  Q 18.63 27.14 19.78 27.14
  L 28.45 27.15
  A 1.05 1.05 0.0 0 1 29.50 28.20
  L 29.50 38.08
  Q 29.50 38.67 30.08 38.55
  L 34.99 37.48
  Q 35.66 37.33 35.14 36.88
  C 31.35 33.58 30.82 25.72 33.09 21.49
  C 35.57 16.88 41.48 15.85 45.60 18.89
  C 50.32 22.36 49.98 33.03 45.70 36.89
  Q 45.25 37.29 45.83 37.44
  C 49.16 38.31 52.22 38.24 54.76 41.17
  Q 55.10 41.56 55.62 41.59
  L 64.00 41.97
  Z
  M 43.08 23.22
  L 45.29 24.47
  Q 46.54 25.18 46.05 23.83
  C 43.75 17.51 35.00 18.64 34.48 25.32
  Q 34.44 25.85 34.96 25.93
  Q 39.27 26.59 42.07 23.40
  A 0.82 0.81 -54.6 0 1 43.08 23.22
  Z
  M 44.36 26.83
  L 43.61 26.36
  A 0.96 0.95 -48.2 0 0 42.49 26.43
  Q 39.87 28.57 36.38 28.51
  Q 33.79 28.46 34.46 30.96
  L 34.80 32.23
  Q 35.54 35.01 38.29 35.87
  Q 42.71 37.25 44.93 34.16
  Q 47.24 30.97 45.82 28.39
  Q 45.29 27.42 44.36 26.83
  Z
  M 42.11 39.14
  A 0.33 0.33 0.0 0 0 41.80 38.70
  L 38.94 38.71
  A 0.33 0.33 0.0 0 0 38.64 39.15
  L 40.08 42.99
  A 0.33 0.33 0.0 0 0 40.70 42.99
  L 42.11 39.14
  Z
  M 13.86 52.00
  L 15.64 52.00
  A 0.36 0.36 0.0 0 0 16.00 51.64
  L 16.00 41.05
  A 1.37 1.18 -90.0 0 0 14.82 39.68
  L 14.68 39.68
  A 1.37 1.18 90.0 0 0 13.50 41.05
  L 13.50 51.64
  A 0.36 0.36 0.0 0 0 13.86 52.00
  Z
  M 46.20 41.72
  Q 48.18 41.05 50.34 41.84
  Q 50.42 41.87 50.44 41.78
  L 50.53 41.45
  A 0.33 0.32 14.2 0 0 50.29 41.06
  L 45.07 39.87
  Q 44.57 39.76 44.39 40.24
  Q 43.01 43.93 41.64 47.62
  Q 41.16 48.88 39.96 48.49
  A 1.26 1.25 -0.9 0 1 39.17 47.73
  L 36.39 40.30
  Q 36.19 39.76 35.62 39.89
  L 30.01 41.16
  A 0.62 0.62 0.0 0 0 29.53 41.75
  Q 29.44 44.82 29.50 47.90
  Q 29.51 48.69 29.24 49.09
  Q 28.75 49.80 27.90 49.53
  Q 26.91 49.23 26.91 50.26
  L 26.91 55.47
  Q 26.91 56.52 27.97 56.52
  L 45.24 56.51
  A 0.26 0.25 -0.0 0 0 45.50 56.26
  L 45.50 42.70
  A 1.04 1.02 81.1 0 1 46.20 41.72
  Z
  M 61.5114 44.4518
  A 0.44 0.44 0.0 0 0 61.0722 44.0110
  L 48.4322 43.9890
  A 0.44 0.44 0.0 0 0 47.9914 44.4282
  L 47.9886 46.0682
  A 0.44 0.44 0.0 0 0 48.4278 46.5090
  L 61.0678 46.5310
  A 0.44 0.44 0.0 0 0 61.5086 46.0918
  L 61.5114 44.4518
  Z
  M 61.5114 49.4418
  A 0.43 0.43 0.0 0 0 61.0822 49.0110
  L 48.4222 48.9890
  A 0.43 0.43 0.0 0 0 47.9915 49.4182
  L 47.9886 51.0782
  A 0.43 0.43 0.0 0 0 48.4178 51.5090
  L 61.0778 51.5310
  A 0.43 0.43 0.0 0 0 61.5085 51.1018
  L 61.5114 49.4418
  Z
  M 18.96 51.99
  C 21.18 52.43 22.45 53.96 22.54 56.14
  A 0.43 0.43 0.0 0 0 22.99 56.55
  L 23.97 56.51
  Q 24.42 56.49 24.42 56.03
  L 24.42 50.25
  Q 24.42 49.57 23.75 49.58
  L 19.42 49.59
  Q 18.77 49.59 18.56 50.20
  Q 18.34 50.81 18.42 51.41
  Q 18.48 51.89 18.96 51.99
  Z
  M 61.5114 54.4418
  A 0.43 0.43 0.0 0 0 61.0822 54.0110
  L 48.4222 53.9890
  A 0.43 0.43 0.0 0 0 47.9915 54.4182
  L 47.9886 56.0782
  A 0.43 0.43 0.0 0 0 48.4178 56.5090
  L 61.0778 56.5310
  A 0.43 0.43 0.0 0 0 61.5085 56.1018
  L 61.5114 54.4418
  Z
  M 19.9402 55.4391
  A 0.88 0.88 0.0 0 0 19.0617 54.5576
  L 10.4018 54.5424
  A 0.88 0.88 0.0 0 0 9.5202 55.4209
  L 9.5198 55.6609
  A 0.88 0.88 0.0 0 0 10.3983 56.5424
  L 19.0582 56.5576
  A 0.88 0.88 0.0 0 0 19.9398 55.6791
  L 19.9402 55.4391
  Z
  M 61.52 59.51
  A 0.51 0.51 0.0 0 0 61.01 59.00
  L 2.99 59.00
  A 0.51 0.51 0.0 0 0 2.48 59.51
  L 2.48 61.01
  A 0.51 0.51 0.0 0 0 2.99 61.52
  L 61.01 61.52
  A 0.51 0.51 0.0 0 0 61.52 61.01
  L 61.52 59.51
  Z"
/>
<circle fill="#000000" cx="14.75" cy="28.38" r="1.22"/>
</svg>
