<svg id="Layer_1" data-name="Layer 1" xmlns="http://www.w3.org/2000/svg" viewBox="0 0 351.85 431.07"><defs><style>.cls-1{fill:#caddff;}.cls-2{fill:#4fb2b2;}.cls-3{fill:#343534;}.cls-4{fill:#fff;}.cls-5{fill:#98b9ff;}</style></defs><path class="cls-1" d="M266.16,26.38c-37.94-9.16-85.74-1.09-112.32,30.24l-15-1.12a.48.48,0,0,1-.45-.51h0a.49.49,0,0,1,.08-.23C161.7,19,207.83,7.67,247.69,14.2a.8.8,0,0,0,.88-.54l.11-.34a.53.53,0,0,0-.22-.7.5.5,0,0,0-.24-.06C206.47,5.33,159.75,18,135.9,55.17a1.13,1.13,0,0,1-1,.55C80.52,58.32,39.53,99.29,34,153.11l-5.7,19.32q-4.15,5.38.12,11c1.81,2.37,4,3.2,6.62,1.43a1,1,0,0,1,1.32.25,1.08,1.08,0,0,1,.12.24l4.67,14.9c.22,4.87-1,15.88,1.46,19.8a17.16,17.16,0,0,0,5.51,5.28,391,391,0,0,0,8.31,80.14,17.76,17.76,0,0,1-4.74-2.9C15.3,265-3.73,214.41.61,162.11c2.8-33.66,18.9-64.37,42-88.41H53.16a1,1,0,0,0,.64-1.26,1,1,0,0,0-.64-.64l-7.26-.31A39.62,39.62,0,0,1,56.07,60H85.21c6.47,0,8-8.31,3.58-11.39-3.61-2.53-13.24-1.42-18-1.55l10.57-8.22h17.3c7.35,0,8.69-7.72,3.2-12C140.24,4,190.2-3.44,233.86,1.42,243.83,2.48,275.54,10.62,266.16,26.38ZM164.54,13.84a.67.67,0,0,0-.66-.68H144a.67.67,0,0,0-.68.66v0h0v.32a.67.67,0,0,0,.66.68h19.87a.67.67,0,0,0,.68-.66v0h0Zm-41,18.83a5.89,5.89,0,0,0-5.89-5.88h0a5.88,5.88,0,0,0-5.88,5.88h0a5.88,5.88,0,0,0,5.88,5.88h0A5.89,5.89,0,0,0,123.54,32.67Z" transform="translate(0 0)"/><path d="M153.84,56.62c-.13,1-.61,1.4-1.46,1.34l-14.6-1a1,1,0,0,0-1,.61l-2.88,6.66c-.23.51-.06.77.5.78l12.69.1-.65,1.49H133.81a1.12,1.12,0,0,0-1.11.89l-2.24,10.28q-2.81,25.74,15.15,47l6.25,8.17L135.3,169.87c-.22.49-.09.63.41.41l17.19-7.87,26.63-11.77a3.1,3.1,0,0,1,2.32-.09l12.21,4.4a.63.63,0,0,1,.4.8h0a.61.61,0,0,1-.3.35,2,2,0,0,1-1.62,0q-5.58-1.87-11.13-3.79a1.68,1.68,0,0,0-1.17,0l-29.5,13.23-17.47,7.77a.84.84,0,0,1-1.12-.4h0a.88.88,0,0,1,0-.71L149.79,133a1.19,1.19,0,0,0-.27-1.4c-15.12-14.18-23.6-34.26-20.84-55.26l1.87-8.75c.1-.45-.09-.66-.55-.61A92.56,92.56,0,0,0,78,89.32c-2,1.79-4.14,3.53-6.26,5.24a1.64,1.64,0,0,1-.64-.64q-.13-.28.27-.69a97.47,97.47,0,0,1,59.38-28,1.1,1.1,0,0,0,.94-.69L134.44,58c.18-.43,0-.65-.42-.67a29.16,29.16,0,0,0-4.94.25q-47.66,5.86-75.44,44.55a.31.31,0,0,0,0,.42.32.32,0,0,0,.3,0,59.38,59.38,0,0,1,9.91-2.48c3-.5,5.33-2.08,8.2-3,6.56,4.14,4.67,9.72-.09,14a.78.78,0,0,0-.11,1l2.46,3.53a1,1,0,0,1,0,1.12l-.9,1.28a1.31,1.31,0,0,0-.19,1.18c1,2.77.39,4.83-1.66,6.18a1.56,1.56,0,0,0-.75,1.41c.12,6.07,1.44,10.67,7.87,12.09a1.44,1.44,0,0,1-.13,2,2.77,2.77,0,0,1-1.63.63,56.63,56.63,0,0,1-24.66-2.37c5.64-3.59,10.14-5.32,8.15-13.38a1.51,1.51,0,0,0-.5-.74l-5.15-3.89a.9.9,0,0,0-1.25.18.7.7,0,0,0-.13.24l-6.46,19-1.53.55a97.22,97.22,0,0,1,7.19-21.24.79.79,0,0,0-.23-1,11.16,11.16,0,0,1-4.06-6.47.36.36,0,0,0-.43-.27.41.41,0,0,0-.24.19A108.54,108.54,0,0,0,35.9,149.09a6.8,6.8,0,0,1-1.86,4C39.57,99.27,80.56,58.3,134.94,55.7a1.13,1.13,0,0,0,1-.55C159.78,18,206.5,5.31,248.25,12.54a.52.52,0,0,1,.52.52h0a.5.5,0,0,1-.06.24l-.11.34a.8.8,0,0,1-.88.54c-39.86-6.53-86,4.8-109.24,40.56a.49.49,0,0,0,.14.67.48.48,0,0,0,.23.07Zm-92,64.65c.39,6.76,2,13.15-5.27,17a.49.49,0,0,0-.23.65v0h0a.56.56,0,0,0,.4.28,96.9,96.9,0,0,0,18.64,1c.85,0,.9-.26.17-.68q-7-4-6-12.39a1.53,1.53,0,0,0-1.34-1.7H68.1a5.81,5.81,0,0,1-4.35-2.08.64.64,0,0,1,.08-.89.66.66,0,0,1,.78,0,8.32,8.32,0,0,0,6,1.61A2,2,0,0,0,72.39,122a1.37,1.37,0,0,0-.09-.4,7.47,7.47,0,0,1,0-4.81,1.47,1.47,0,0,0-.14-1.29l-3.58-6a.68.68,0,0,0-.93-.28l-.07,0h0l-.09.06-4,3.44a.83.83,0,0,1-.77.17,2.9,2.9,0,0,0-3.6,1.39,1.33,1.33,0,0,0,0,1.2c.77,1.66.24,2.69-1.58,3.07a.63.63,0,0,0-.49.74v0h0a.64.64,0,0,0,.46.48l3.78,1a.7.7,0,0,1,.49.51Z" transform="translate(0 0)"/><rect x="153.08" y="3.38" width="1.68" height="21.21" rx="0.68" transform="translate(139.67 167.89) rotate(-89.9)"/><ellipse cx="276.31" cy="21.88" rx="1.03" ry="3.19" transform="translate(148.21 267.68) rotate(-67)"/><path class="cls-2" d="M266.16,26.38A115.6,115.6,0,0,1,309.26,47a59.43,59.43,0,0,1,15,31c5.49,34.37-20.67,61.58-50.39,73a126,126,0,0,1-60.11,7.61,1.14,1.14,0,0,0-1.26.62.7.7,0,0,0,.27.94h0a.73.73,0,0,0,.25.08c32.13,4,68.83-4.17,92.47-26.69,19.84-18.92,27.19-45.33,16.2-71.11a.82.82,0,0,1,.31-1.11h0q22.53,28,8,62.41c-17,31-50.89,46.4-85,47.69l-1.63.71a17.31,17.31,0,0,0-8-.25,1.68,1.68,0,0,1-1.37-.11,149,149,0,0,1-42.9-9,1.5,1.5,0,0,0-1.21,0l-38.62,17.6-7.77,3.09c-.64.26-.83.07-.59-.57l1.17-2.89,6.54-14.5,29.5-13.23a1.63,1.63,0,0,1,1.17-.05q5.55,1.92,11.13,3.79a2,2,0,0,0,1.62,0,.63.63,0,0,0,.26-.84h0a.61.61,0,0,0-.35-.3l-12.1-4.33a3.1,3.1,0,0,0-2.32.09L152.9,162.41l7.61-18.11a1.12,1.12,0,0,0-.16-1.14L151.82,133l-6.25-8.17q-11-23.79-4.24-46.21l5.07-11.92.65-1.49,5.33-7.2c.85.06,1.33-.39,1.46-1.34C180.42,25.29,228.22,17.22,266.16,26.38ZM213.9,46.8c-6.16,1.84-4,9.83,1.74,11.42a1.81,1.81,0,0,0,1.08,0q4.34-1.39,8.73-2.55c10.85-2.86,27.45-.66,27,14.34-.34,11.46-9,16.85-17.71,22.56-7.26,4.77-7.8,9.06-7.64,17.35.18,9.47,11.44,8.48,11.7,2,.56-14.19,12.7-15.81,20.5-25.2,7.47-9,9.21-23.19,2-32.84C250.8,40,228.28,42.49,213.9,46.8Zm26,89.62a6.77,6.77,0,0,0-6.77-6.77h0a6.78,6.78,0,1,0,6.77,6.79Z" transform="translate(0 0)"/><path class="cls-3" d="M101.9,26.8c5.49,4.24,4.15,11.93-3.2,12H81.4q-17.18,0-33.86-.08c-9.27,0-10-11.92.07-12Q74.75,26.68,101.9,26.8Z" transform="translate(0 0)"/><circle class="cls-3" cx="117.64" cy="32.67" r="5.88"/><path d="M322.07,61.39a.82.82,0,0,0-.37,1.1h0c11,25.78,3.64,52.19-16.2,71.11-23.64,22.52-60.34,30.73-92.47,26.69a.7.7,0,0,1-.61-.77.73.73,0,0,1,.08-.25,1.14,1.14,0,0,1,1.26-.62A126.08,126.08,0,0,0,273.89,151c29.72-11.4,55.88-38.61,50.39-73a59.43,59.43,0,0,0-15-31,78.82,78.82,0,0,0-20.81-17.82.89.89,0,0,1-.36-1.22v0h0a1,1,0,0,1,.15-.2c.23-.23.59-.18,1.09.13A98,98,0,0,1,322.07,61.39Z" transform="translate(0 0)"/><path class="cls-4" d="M215.62,58.22c-5.75-1.59-7.9-9.58-1.74-11.42,14.4-4.31,36.92-6.77,47.35,7.11,7.24,9.65,5.5,23.87-2,32.84-7.8,9.39-19.94,11-20.5,25.2-.26,6.44-11.52,7.43-11.7-2-.16-8.29.38-12.58,7.64-17.35C243.37,86.89,252,81.5,252.38,70c.45-15-16.11-17.19-27-14.34q-4.4,1.15-8.73,2.55A1.81,1.81,0,0,1,215.62,58.22Z" transform="translate(0 0)"/><path class="cls-3" d="M70.8,47c4.75.13,14.38-1,18,1.55C93.18,51.64,91.69,60,85.22,60H56.08q-22.35.55-32.67-.18C16.77,59.3,16.13,46.94,27.09,47Q49.16,47.27,70.8,47Z" transform="translate(0 0)"/><path class="cls-4" d="M152.38,58l-5.33,7.2-12.69-.1c-.56,0-.73-.27-.5-.78l2.92-6.63a1,1,0,0,1,1-.61Z" transform="translate(0 0)"/><path class="cls-4" d="M71.69,94.59a2.69,2.69,0,0,1,.4,2.52c-2.87.93-5.17,2.51-8.2,3A59.15,59.15,0,0,0,54,102.59a.3.3,0,0,1-.39-.16.32.32,0,0,1,0-.3Q81.38,63.45,129,57.58a29.16,29.16,0,0,1,4.94-.25c.46,0,.6.24.42.67l-2.79,6.59a1.1,1.1,0,0,1-.94.69,97.47,97.47,0,0,0-59.38,28q-.41.41-.27.69A1.77,1.77,0,0,0,71.69,94.59Z" transform="translate(0 0)"/><path class="cls-4" d="M146.4,66.65l-5.07,11.89a15.9,15.9,0,0,0-10.91-.75l2.24-10.28a1.12,1.12,0,0,1,1.11-.89Z" transform="translate(0 0)"/><path class="cls-4" d="M128.67,76.38l-18.94-2.84a2,2,0,0,0-1.17.16,4.13,4.13,0,0,1-2,.26c-.45-.06-.69-.5-.71-1.31A92,92,0,0,1,130,67c.46,0,.65.16.55.61Z" transform="translate(0 0)"/><path d="M45.9,71.49l7.37.32a1,1,0,0,1,.64,1.26,1,1,0,0,1-.64.64H16.33a.58.58,0,0,1-.66-.49h0a.43.43,0,0,1,0-.16v-.79a.67.67,0,0,1,.58-.75h.16Z" transform="translate(0 0)"/><path class="cls-1" d="M105.82,72.65c0,.81.26,1.25.71,1.31a4.13,4.13,0,0,0,2-.26,2,2,0,0,1,1.17-.16l18.94,2.84c-2.76,21,5.72,41.08,20.84,55.26a1.19,1.19,0,0,1,.27,1.4l-17.64,39.21a.85.85,0,0,0,.42,1.13h0a.81.81,0,0,0,.71,0l17.47-7.77-6.54,14.5c-3.14-.36-6.07-1.22-9.07-1.43a68.57,68.57,0,0,1-16.42-3.18c1.22-4.65-.25-8.35.71-12.55q1.27-5.56,2.67-11.35a3,3,0,0,0-2.15-3.66h-.08a3,3,0,0,0-.72-.09l-26.69-.07q-3.87-8.84-13.78-8.83c-6.43-1.42-7.75-6-7.87-12.09a1.56,1.56,0,0,1,.75-1.41q3.09-2,1.66-6.18a1.31,1.31,0,0,1,.19-1.18l.94-1.29a1,1,0,0,0,0-1.12l-2.41-3.53a.78.78,0,0,1,.11-1c4.76-4.26,6.65-9.84.09-14a2.69,2.69,0,0,0-.4-2.52c2.12-1.71,4.21-3.45,6.26-5.24A92.43,92.43,0,0,1,105.82,72.65Z" transform="translate(0 0)"/><path class="cls-1" d="M141.33,78.54q-6.79,22.42,4.24,46.21-18-21.23-15.15-47A15.84,15.84,0,0,1,141.33,78.54Z" transform="translate(0 0)"/><path class="cls-4" d="M61.3,120.62l-3.78-1a.63.63,0,0,1-.46-.76h0a.64.64,0,0,1,.48-.46c1.82-.38,2.35-1.41,1.58-3.07a1.33,1.33,0,0,1,0-1.2,2.9,2.9,0,0,1,3.6-1.39.83.83,0,0,0,.77-.17l4-3.44a.68.68,0,0,1,1,0s0,0,0,0h0l.07.09,3.58,6a1.47,1.47,0,0,1,.14,1.29,7.47,7.47,0,0,0,0,4.81,2,2,0,0,1-1.29,2.5,1.77,1.77,0,0,1-.4.08,8.32,8.32,0,0,1-6-1.61.64.64,0,0,0-.86.92,5.81,5.81,0,0,0,4.35,2.08,1.52,1.52,0,0,1,1.48,1.56v0h0a.21.21,0,0,1,0,.11q-1,8.38,6,12.39c.73.42.68.65-.17.68a96.9,96.9,0,0,1-18.64-1,.52.52,0,0,1-.45-.58.47.47,0,0,1,.27-.38c7.26-3.8,5.66-10.19,5.27-17A.67.67,0,0,0,61.3,120.62Z" transform="translate(0 0)"/><path class="cls-4" d="M45.33,141.06l-9.42,8a108.58,108.58,0,0,1,11.65-36.87.36.36,0,0,1,.49-.15h0a.33.33,0,0,1,.18.23,11.16,11.16,0,0,0,4.06,6.47.79.79,0,0,1,.23,1A97.88,97.88,0,0,0,45.33,141.06Z" transform="translate(0 0)"/><path class="cls-1" d="M52.25,139.22a10.1,10.1,0,0,0-5.35,1.29l6.46-19A.9.9,0,0,1,54.5,121a.7.7,0,0,1,.24.13L59.9,125a1.51,1.51,0,0,1,.55.83C62.39,134,57.9,135.63,52.25,139.22Z" transform="translate(0 0)"/><path class="cls-1" d="M330.11,123.8c22.27,30.89,26.44,76.24,17,111.34-7.42,27.52-25.25,52-47.27,69.95l-35-35a.72.72,0,0,1,0-1,.16.16,0,0,1,.06-.08c3.3-2.41,1.47-5-.81-7.28-2.8-2.8-9.46-12.23-13.39-6.75a.68.68,0,0,1-.93.15l-.07-.07-1.51-1.52a.77.77,0,0,1,0-1.07h0l.07-.07a4,4,0,0,0,1.67-4.26,2.32,2.32,0,0,0-.65-1.26l-9.73-9.7a1.8,1.8,0,0,0-1-.5,4.58,4.58,0,0,0-4.58,1.54.65.65,0,0,1-.9.21h0a.64.64,0,0,1-.2-.2L226.62,232a1.16,1.16,0,0,0-1.62-.24,1.36,1.36,0,0,0-.24.24l-15.18,15.18a.64.64,0,0,0-.1.9h0a.47.47,0,0,0,.1.1l6.68,6.87a.62.62,0,0,1,.08.87v0a.43.43,0,0,1-.12.11c-3.34,2.88-1.48,5.16,1.1,7.71,2.85,2.82,9.06,11.79,13.15,6.37a.59.59,0,0,1,.84-.12h.06l1.36,1.38a.74.74,0,0,1,.13,1l-.13.13q-3.22,3.27.48,7c3,3,9.41,12.24,13.91,7.31a.61.61,0,0,1,.85-.14h0l.13.13L280.19,319a206.07,206.07,0,0,1-89,31A174.5,174.5,0,0,1,87.24,329.4l-.27-.18a1.73,1.73,0,0,0-1.52-.1l-1.55-2.33a1.09,1.09,0,0,1-.1-1.1,37.3,37.3,0,0,1,2.25-4.52,112.44,112.44,0,0,0,19.38-58.51.63.63,0,0,1,.66-.6h.15a139,139,0,0,0,19.23,4.28c60.63,7.54,112.46-34.41,119.64-94.87C279.22,170.2,313.1,154.79,330.11,123.8Zm-3.53,71.55a5.76,5.76,0,0,0-5.76-5.76H267.47a5.76,5.76,0,0,0-5.76,5.76h0v.5a5.76,5.76,0,0,0,5.76,5.76h53.35a5.76,5.76,0,0,0,5.76-5.76h0Zm18.35.16a5.93,5.93,0,1,0-5.94,5.92h0a5.92,5.92,0,0,0,5.89-5.92Zm-32.3,20.75a6.25,6.25,0,0,0-6.25-6.25h-60.3a6.24,6.24,0,0,0-6.24,6.24h0v.29a6.24,6.24,0,0,0,6.24,6.24h60.3a6.24,6.24,0,0,0,6.25-6.23h0Zm24.09,18.14a.94.94,0,0,0-.92-.91H269.67a.94.94,0,0,0-.92.91h0a.94.94,0,0,0,.92.91H335.8A.94.94,0,0,0,336.72,234.4Zm-47,12a.9.9,0,0,0-.9-.9H257.76a.9.9,0,0,0-.9.9h0a.9.9,0,0,0,.9.9H288.9a.9.9,0,0,0,.9-.9ZM182.2,293.6a6,6,0,0,0-6-6H123.44a6,6,0,0,0-6,6h0v.3a6,6,0,0,0,6,6h52.83a6,6,0,0,0,6-6h0Zm18.49.19a5.92,5.92,0,0,0-5.92-5.92h0a5.92,5.92,0,1,0,5.92,5.92Zm45.94,20.8a6.41,6.41,0,0,0-6.41-6.4H144.15a6.41,6.41,0,0,0-6.41,6.4v.23a6.41,6.41,0,0,0,6.41,6.4h96.12a6.41,6.41,0,0,0,6.41-6.4ZM168.54,332a.86.86,0,0,0-.84-.84H126.28a.86.86,0,0,0-.84.84v.17a.86.86,0,0,0,.84.84h41.47a.86.86,0,0,0,.84-.84h0ZM202,342a.91.91,0,0,0-.91-.91h-60a.94.94,0,0,0-.92.91h0a.94.94,0,0,0,.92.91h60A.91.91,0,0,0,202,342Z" transform="translate(0 0)"/><circle class="cls-4" cx="233.12" cy="136.43" r="6.77"/><path class="cls-1" d="M151.82,133l8.53,10.24a1.12,1.12,0,0,1,.16,1.14l-7.61,18.11-17.23,7.8c-.5.22-.63.08-.41-.41Z" transform="translate(0 0)"/><path class="cls-2" d="M52.25,139.22a56.89,56.89,0,0,0,24.65,2.37,2.77,2.77,0,0,0,1.63-.63,1.44,1.44,0,0,0,.13-2q9.91,0,13.78,8.85-5.5.16-15.29.06A4.45,4.45,0,0,0,74.09,149a2,2,0,0,0-.64,1l-.7,2.21a.84.84,0,0,1-1,.66H71.7l-10.31-1.76a1.79,1.79,0,0,0-1.2.21c-3.28,1.88-5.73,4.86-8.8,6.53a193.46,193.46,0,0,0-23.1,14.74L34,153.21a6.8,6.8,0,0,0,1.86-4l9.42-8,1.53-.55A10,10,0,0,1,52.25,139.22Zm23.49,5.26c-8,.05-14-.39-22.25-3.9-.62-.27-.87-.07-.76.59s.54,1,1.36,1.35A49.37,49.37,0,0,0,74.91,146a1.37,1.37,0,0,0,1.31-.73C76.41,144.72,76.25,144.48,75.74,144.48Z" transform="translate(0 0)"/><path d="M53.49,140.58c8.24,3.51,14.25,4,22.25,3.9.51,0,.67.24.48.71a1.37,1.37,0,0,1-1.31.73,49.37,49.37,0,0,1-20.82-3.4c-.82-.32-1.27-.77-1.36-1.35S52.9,140.31,53.49,140.58Z" transform="translate(0 0)"/><path d="M92.45,147.76l26.69.07a3,3,0,0,1,3,3.06,2.82,2.82,0,0,1-.09.71q-1.39,5.79-2.67,11.35c-1,4.2.51,7.9-.71,12.55q-4.33,1.71-5.2,12.42a41.18,41.18,0,0,1-14.67,1l-30.63,0c-3,0-4.12-1.45-3.41-4.35l6.75-27.45a.52.52,0,0,0-.37-.62H71l-4.73.4a.86.86,0,0,0-.75.54,7.94,7.94,0,0,1-5.59,4.71,2.27,2.27,0,0,0-1.16.67l-17.2,18-3.61,2.49a.77.77,0,0,0-.33.92L41,195.85c.69,1.93.72,3.39.1,4.36l-4.67-14.9a1,1,0,0,0-1.19-.61,1.15,1.15,0,0,0-.25.12c-2.59,1.77-4.81.94-6.62-1.43q-4.29-5.58-.12-11a193.46,193.46,0,0,1,23.1-14.74c3.07-1.67,5.52-4.65,8.8-6.53a1.79,1.79,0,0,1,1.2-.21l10.31,1.75a.85.85,0,0,0,1-.58V152l.7-2.21a2,2,0,0,1,.64-1,4.45,4.45,0,0,1,3.06-1.08Q86.9,148,92.45,147.76Zm15,16.3,8.12,3.85a.94.94,0,0,0,1.24-.44l.06-.18L120.7,151a1.41,1.41,0,0,0-1-1.68h-.33l-43.23-.1a1.25,1.25,0,0,0-1.34,1L66,185.47a1.57,1.57,0,0,0,1.14,1.89h43.29a1.77,1.77,0,0,0,1.72-1.35l2.26-9.24a.6.6,0,0,0-.36-.77h0c-3.71-1.42-12.78-7.51-7.77-11.85a1,1,0,0,1,1.17-.08ZM30.08,183.3c5,5.59,24.91-18.11,27.89-21.81a1.82,1.82,0,0,1,1.13-.63,5.72,5.72,0,0,0,5.28-4.76.9.9,0,0,1,.84-.71l5.73-.28a.5.5,0,0,0,.54-.46h0a.51.51,0,0,0-.48-.54h0l-9.69-1.66a1.52,1.52,0,0,0-1.25.31c-2.36,1.86-4.19,4-6.77,5.45A205,205,0,0,0,32.79,171C28,174.42,25.56,178.27,30.08,183.3Zm76.29-17.18c-.52,4.58,6.2,8,9.76,9.23a.76.76,0,0,0,1-.31.75.75,0,0,0,.09-.3l.78-3.12a1.18,1.18,0,0,0-.63-1.34l-10.19-4.63a.6.6,0,0,0-.8.29h0v.17Z" transform="translate(0 0)"/><path class="cls-5" d="M106.25,164.22c-5,4.34,4.06,10.43,7.77,11.85a.6.6,0,0,1,.42.74h0l-2.26,9.24a1.77,1.77,0,0,1-1.72,1.35H67.53A1.55,1.55,0,0,1,66,185.89h0a1.15,1.15,0,0,1,0-.37l8.73-35.24a1.25,1.25,0,0,1,1.34-1l43.23.1a1.4,1.4,0,0,1,1.41,1.39h0a1.61,1.61,0,0,1,0,.31l-3.86,16.26a.93.93,0,0,1-1.11.68h0l-.18-.06-8.12-3.85A1,1,0,0,0,106.25,164.22Z" transform="translate(0 0)"/><path class="cls-4" d="M58,161.49c-3,3.7-22.88,27.4-27.89,21.81-4.52-5-2.1-8.88,2.71-12.29A204.52,204.52,0,0,1,53.3,158.2c2.58-1.4,4.41-3.59,6.77-5.45a1.52,1.52,0,0,1,1.25-.31L71,154.1a.51.51,0,0,1,.48.54h0a.5.5,0,0,1-.53.47h0l-5.73.28a.9.9,0,0,0-.84.71,5.72,5.72,0,0,1-5.28,4.76A1.79,1.79,0,0,0,58,161.49Z" transform="translate(0 0)"/><path class="cls-2" d="M98.84,189q2,12,4,23.56.82,4.92-3.76,8L92.38,202a1.37,1.37,0,0,0-.92-.86q-22.58-6.33-42,6.29a1.19,1.19,0,0,0-.59,1l-.7,16.9A17.11,17.11,0,0,1,42.66,220c-2.5-3.92-1.24-14.93-1.46-19.8.62-1,.59-2.43-.1-4.36l.53-15,17.2-17.95a2.27,2.27,0,0,1,1.16-.67,7.94,7.94,0,0,0,5.59-4.73.86.86,0,0,1,.75-.54l4.73-.4a.5.5,0,0,1,.55.45h0v.17l-6.75,27.45Q63.78,189,68.27,189Z" transform="translate(0 0)"/><path class="cls-1" d="M234.12,171.84a103.34,103.34,0,0,1-4.57,20.26q-38.7-4.8-78.16-11.62L190,162.88a1.5,1.5,0,0,1,1.21,0A148.66,148.66,0,0,0,234.12,171.84Z" transform="translate(0 0)"/><path class="cls-4" d="M106.37,166.12a.6.6,0,0,1,.67-.52h.17l10.19,4.63a1.18,1.18,0,0,1,.63,1.34l-.78,3.12a.76.76,0,0,1-.82.7h0a.8.8,0,0,1-.3-.09C112.57,174.14,105.9,170.7,106.37,166.12Z" transform="translate(0 0)"/><path class="cls-4" d="M243.49,172.2c-7.46,66.54-73.26,109.51-137.23,88.06a.84.84,0,0,1-.6-.79,176.9,176.9,0,0,0-6.42-38.64,2.25,2.25,0,0,1,2.85,0,2.9,2.9,0,0,0,1.14.45l96,14q-19.35,15.3-41.45,19.4a.67.67,0,0,0-.54.78h0a.67.67,0,0,0,.22.39,1.43,1.43,0,0,0,1.3.18c41.38-9.28,72-41.56,76.74-84.07A17.4,17.4,0,0,1,243.49,172.2Z" transform="translate(0 0)"/><path class="cls-3" d="M245.12,171.49c-7.18,60.46-59,102.41-119.64,94.87a139,139,0,0,1-19.23-4.28.62.62,0,0,0-.77.4h0a.38.38,0,0,0,0,.15A112.44,112.44,0,0,1,86.1,321.15a37.3,37.3,0,0,0-2.25,4.52,1.09,1.09,0,0,0,.1,1.1L85.51,329l5.77,15.75a3.34,3.34,0,0,1-2,4.27,3.4,3.4,0,0,1-1.1.2l-8.66.15a1,1,0,0,0-.84.48,3.42,3.42,0,0,1-3.18,1.91c-4.8,0-9.59.06-14.39,0-5.76,0-2.37-12.74-1-16.36,2.54-6.79-1.74-22.8-3.64-30.06a391,391,0,0,1-8.31-80.14l.7-16.9a1.19,1.19,0,0,1,.59-1q19.45-12.61,42-6.29a1.37,1.37,0,0,1,.92.86l6.7,18.48.18.41a176.9,176.9,0,0,1,6.42,38.64.84.84,0,0,0,.6.79c64,21.45,129.77-21.52,137.23-88.06ZM73.49,242.26a51.73,51.73,0,0,0,4.16,3.21c.54.31.75.16.65-.46q-1.06-6-2.7-11.87a42,42,0,0,1-1.17-9.86,1.12,1.12,0,0,1,.48-1l5.88-4.22c.41-.3.41-.58,0-.87a1.09,1.09,0,0,0-1.24.13,58.56,58.56,0,0,0-6,4.25,1.25,1.25,0,0,0-.47,1q.21,10.29-.33,17.66A2.07,2.07,0,0,0,73.49,242.26Zm5,5.59A17.76,17.76,0,0,1,73.68,244a.45.45,0,0,0-.61,0,.41.41,0,0,0-.14.31l-1.76,78.22a2.42,2.42,0,0,0,.26,1.15l.81,1.56a.76.76,0,0,0,1,.36.8.8,0,0,0,.4-.48c7.41-24.16,9-51.89,5.08-76.88a.58.58,0,0,0-.24-.43Zm-25.7,16.74c0,5.61,3.89,14.34,10.77,14a.69.69,0,0,0,0-1.37c-6.58-.82-8.79-6.84-9.63-12.55a.71.71,0,0,0-.19-.41,1.09,1.09,0,0,0-.33-.19c-.41-.06-.63.05-.63.52Zm32,55.59a.38.38,0,0,0-.18-.51H84.5l-6.91-1.18a.39.39,0,0,0-.42.25L74.8,326a.35.35,0,0,0,.21.46h.19l6.8-.83a.41.41,0,0,0,.3-.21Zm-23.06,4.44.66,7.16a.49.49,0,0,0,.53.45h0a.47.47,0,0,0,.37-.22c1.33-1.91,3.26-2.46,5.77-1.64a.82.82,0,0,0,1-.52,1.22,1.22,0,0,0,0-.27L69.87,324a.73.73,0,0,0-.65-.8H69l-6.37.35a1,1,0,0,0-1,1v.07ZM88.9,345l-9.14.28a.7.7,0,0,0-.78.61h0a.54.54,0,0,0,0,.18v1a.83.83,0,0,0,.83.83l8-.09a2,2,0,0,0,2-2,2.62,2.62,0,0,0-.09-.56l-.15-.46-6.13-16.18a1.37,1.37,0,0,0-1-.84,15.44,15.44,0,0,0-8.26.91.76.76,0,0,1-1-.27l-1-1.33c-.22-.28-.37-.25-.46.08-.92,3.23,4.89,12.56,6.4,16.15a.93.93,0,0,0,.85.57h9a.76.76,0,0,1,.85.66h0v.07A2.7,2.7,0,0,1,88.9,345Zm-29.53,3.66c.35,1.2,1.47,1.78,3.35,1.75q6.59-.14,13.16-.05a1,1,0,0,0,1.18-.79s0-.07,0-.1v-.11c.06-.4-.11-.61-.52-.62l-16.39-.11-.24-.57a.59.59,0,0,1,.3-.76.49.49,0,0,1,.24-.05H76.8c.4,0,.56-.21.48-.61a34.72,34.72,0,0,0-5.45-13q-2.46-3.48-6.8-1.25a1.05,1.05,0,0,0-.57.94v1.89c0,.68-.29.85-.87.49l-1-.57a.54.54,0,0,0-.76,0,.5.5,0,0,0-.13.25,29.56,29.56,0,0,0-2.29,13.23Z" transform="translate(0 0)"/><path d="M234.12,171.84a1.68,1.68,0,0,0,1.37.11c-4.69,42.51-35.36,74.79-76.74,84.07a1.43,1.43,0,0,1-1.3-.18.71.71,0,0,1-.08-1h0a.73.73,0,0,1,.39-.22q22.1-4.11,41.45-19.4,15.67-12,25.68-31.82l4.69-11.3A103.28,103.28,0,0,0,234.12,171.84Z" transform="translate(0 0)"/><path class="cls-4" d="M118.71,175.5a68.57,68.57,0,0,0,16.42,3.18c3,.21,5.93,1.07,9.07,1.43L143,183c-.24.64,0,.83.59.57l7.77-3.09q39.47,6.82,78.16,11.62L224.9,203.4a6.34,6.34,0,0,0-3.91-2.08q-20.69-2.81-102.09-14.87a6.27,6.27,0,0,0-5.39,1.47Q114.38,177.21,118.71,175.5Z" transform="translate(0 0)"/><path class="cls-4" d="M41.58,180.83l-.53,15-3.41-11.61a.77.77,0,0,1,.33-.92Z" transform="translate(0 0)"/><path class="cls-1" d="M224.9,203.4q-10,19.8-25.64,31.84l-96-14a2.9,2.9,0,0,1-1.14-.45,2.25,2.25,0,0,0-2.85,0l-.18-.41q4.59-3,3.76-8-2-11.58-4-23.56a41.18,41.18,0,0,0,14.67-1,6.27,6.27,0,0,1,5.39-1.47Q200.3,198.46,221,201.27A6.4,6.4,0,0,1,224.9,203.4Z" transform="translate(0 0)"/><rect class="cls-3" x="261.7" y="189.59" width="64.87" height="12.02" rx="5.76"/><circle class="cls-3" cx="339" cy="195.52" r="5.92"/><rect class="cls-3" x="239.84" y="210.02" width="72.79" height="12.78" rx="6.24"/><path class="cls-4" d="M73.49,242.26a2.08,2.08,0,0,1-.7-2q.55-7.38.33-17.66a1.25,1.25,0,0,1,.47-1,58.56,58.56,0,0,1,6-4.25,1.09,1.09,0,0,1,1.24-.13c.42.29.42.57,0,.87L75,222.28a1.12,1.12,0,0,0-.48,1,42,42,0,0,0,1.17,9.86Q77.28,239,78.34,245c.1.62-.11.77-.65.46A52.35,52.35,0,0,1,73.49,242.26Z" transform="translate(0 0)"/><path d="M299.82,305.09q11.67,11.84,23.6,23.62,5,4.91,5.92,8a11.71,11.71,0,0,1-14.18,14.73q-3.2-.87-7.22-4.86Q293.47,332.23,280.19,319L248.13,287a.61.61,0,0,0-.85-.14h0l-.13.13c-4.5,4.93-11-4.31-13.91-7.31q-3.71-3.76-.48-7a.74.74,0,0,0,.13-1l-.13-.13L231.33,270a.6.6,0,0,0-.85,0h0v.06c-4.09,5.42-10.3-3.55-13.15-6.37-2.58-2.55-4.44-4.83-1.1-7.71a.63.63,0,0,0,.16-.88h0l-.11-.12-6.68-6.87a.64.64,0,0,1-.1-.9h0l.1-.1L224.73,232a1.16,1.16,0,0,1,1.62-.24,1.36,1.36,0,0,1,.24.24l6.31,6.27a.65.65,0,0,0,.9.21h0a.64.64,0,0,0,.2-.2,4.58,4.58,0,0,1,4.58-1.54,1.8,1.8,0,0,1,1,.5l9.73,9.7a2.32,2.32,0,0,1,.65,1.26,4,4,0,0,1-1.67,4.26.79.79,0,0,0-.14,1.08l.07.07,1.51,1.52a.63.63,0,0,0,.89,0h0l.07-.07c3.93-5.48,10.59,4,13.39,6.75,2.28,2.27,4.11,4.87.81,7.28a.72.72,0,0,0-.15,1l.08.08ZM232.22,240a.34.34,0,0,0,0-.48h0l-6.17-6.17a.33.33,0,0,0-.47,0h0l-14.25,14.25a.33.33,0,0,0,0,.47h0l6.17,6.17a.34.34,0,0,0,.48,0h0Zm15.52,11.11a2.66,2.66,0,0,0,0-3.73h0l-8.63-8.6a2.64,2.64,0,0,0-3.73,0l-18.72,18.73a2.63,2.63,0,0,0,0,3.72h0l8.63,8.61a2.66,2.66,0,0,0,3.73,0Zm.74,5.91a.62.62,0,0,0,0-.86h0l-1.38-1.38a.6.6,0,0,0-.85,0h0L232.6,268.38a.6.6,0,0,0,0,.85h0l1.38,1.38a.6.6,0,0,0,.83,0h0Zm15.86,10.85a2.7,2.7,0,0,0,0-3.83h0l-8.44-8.54a2.7,2.7,0,0,0-3.83,0h0L233.4,274.08a2.72,2.72,0,0,0,0,3.84h0l8.5,8.5a2.73,2.73,0,0,0,3.85,0h0Zm-1.58,3.51-13.3,13.26a1.2,1.2,0,0,0,0,1.68h0l59.9,60.12c4.69,4.71,11.82,5.22,15.92,1.14h0l.15-.16c4.09-4.08,3.61-11.2-1.07-15.91l-59.92-60.13a1.18,1.18,0,0,0-1.67,0h0Z" transform="translate(0 0)"/><rect class="cls-4" x="211.36" y="239" width="20.82" height="9.39" rx="0.33" transform="translate(-107.37 228.19) rotate(-45)"/><rect x="268.75" y="233.49" width="67.97" height="1.85" rx="0.91"/><rect class="cls-4" x="216.31" y="245.46" width="31.77" height="17.45" rx="2.63" transform="translate(-111.75 239.24) rotate(-45.1)"/><path class="cls-1" d="M78.48,247.85a.52.52,0,0,1,.27.4c3.87,25,2.33,52.72-5.08,76.88a.77.77,0,0,1-1,.55h0a.74.74,0,0,1-.48-.4l-.81-1.56a2.42,2.42,0,0,1-.26-1.15l1.78-78.22a.44.44,0,0,1,.45-.42.49.49,0,0,1,.3.14A17.78,17.78,0,0,0,78.48,247.85Z" transform="translate(0 0)"/><rect x="256.86" y="245.54" width="32.91" height="1.83" rx="0.9"/><rect class="cls-4" x="230.27" y="261" width="20.52" height="3.16" rx="0.61" transform="translate(-115.22 246.99) rotate(-45)"/><rect class="cls-4" x="232.97" y="262.14" width="31.77" height="17.45" rx="2.72" transform="translate(-118.65 255.3) rotate(-45)"/><path class="cls-4" d="M63.55,278.62c-6.88.31-10.77-8.42-10.77-14,0-.47.22-.63.67-.49a1.09,1.09,0,0,1,.33.19.71.71,0,0,1,.19.41c.84,5.71,3.05,11.73,9.63,12.55a.69.69,0,0,1,0,1.37Z" transform="translate(0 0)"/><path class="cls-4" d="M262.76,271.23a1.18,1.18,0,0,1,1.67,0h0l59.92,60.13c4.68,4.71,5.16,11.83,1.07,15.91l-.15.16c-4.09,4.08-11.22,3.57-15.91-1.13h0l-59.9-60.12a1.18,1.18,0,0,1,0-1.65h0Zm15.49,21c.3-.3-1.68-2.76-4.41-5.5h0c-2.74-2.74-5.19-4.73-5.48-4.43h0c-.3.29,1.68,2.75,4.41,5.49h0C275.5,290.54,278,292.52,278.25,292.23Zm37.65,52.34L304.78,334c-.48-.45-.73-.35-.74.3a1.48,1.48,0,0,0,.47,1.08q4.75,5,9.89,9.55c6.25,5.54,14.1-3.3,6.86-10.56Q305.18,318.17,289,302.07c-.38-.38-.62-.3-.71.22a1.56,1.56,0,0,0,.55,1.4q15.53,15.54,31,31.12c4.08,4.1,4.63,10.9-3,10.21A1.63,1.63,0,0,1,315.9,344.57Z" transform="translate(0 0)"/><ellipse cx="273.29" cy="287.27" rx="0.75" ry="7.01" transform="translate(-123.07 276.7) rotate(-44.9)"/><rect class="cls-3" x="117.47" y="287.64" width="64.78" height="12.24" rx="5.97"/><circle class="cls-3" cx="194.81" cy="293.79" r="5.92"/><path d="M304.74,334l11.16,10.63a1.7,1.7,0,0,0,1,.45c7.6.69,7.05-6.11,3-10.21q-15.47-15.58-31-31.12a1.56,1.56,0,0,1-.55-1.4c.09-.52.33-.6.71-.22q16.15,16.1,32.24,32.24c7.24,7.26-.61,16.1-6.86,10.56q-5.13-4.54-9.89-9.55a1.48,1.48,0,0,1-.47-1.08C304,333.59,304.26,333.49,304.74,334Z" transform="translate(0 0)"/><rect class="cls-3" x="137.74" y="308.19" width="108.93" height="13.03" rx="6.4"/><path class="cls-4" d="M84.8,320.18l-2.55,5.27a.41.41,0,0,1-.3.21l-6.75.84a.39.39,0,0,1-.42-.34.43.43,0,0,1,0-.16l2.38-7.29a.39.39,0,0,1,.42-.25l6.91,1.18a.39.39,0,0,1,.32.44Z" transform="translate(0 0)"/><path class="cls-4" d="M62.69,323.51l6.37-.35a.74.74,0,0,1,.86.57.81.81,0,0,1,0,.22l.19,5.63a.8.8,0,0,1-.77.83h0a.66.66,0,0,1-.28,0q-3.81-1.23-5.77,1.64a.49.49,0,0,1-.68.14h0a.47.47,0,0,1-.21-.36l-.66-7.16a1,1,0,0,1,.88-1.11h0Z" transform="translate(0 0)"/><path class="cls-2" d="M89.62,344.73c-.73-.07-1,0-.68.22a2.67,2.67,0,0,0,0-.4.76.76,0,0,0-.78-.74H79.09a.93.93,0,0,1-.85-.57c-1.51-3.59-7.32-12.92-6.4-16.15.09-.33.24-.36.46-.08l1,1.33a.76.76,0,0,0,1,.27,15.44,15.44,0,0,1,8.26-.91,1.37,1.37,0,0,1,1,.84Z" transform="translate(0 0)"/><rect x="125.44" y="331.16" width="43.14" height="1.85" rx="0.84"/><path class="cls-2" d="M60.21,348.6c.08-.28-.19-.28-.8,0a29.63,29.63,0,0,1,2.38-13.21.54.54,0,0,1,.64-.42h0a.6.6,0,0,1,.25.13l1,.57c.58.36.87.19.87-.49v-1.89a1.05,1.05,0,0,1,.57-.94q4.34-2.24,6.8,1.25a34.72,34.72,0,0,1,5.45,13c.08.4-.08.61-.48.61H60.51a.58.58,0,0,0-.58.58.45.45,0,0,0,0,.23Z" transform="translate(0 0)"/><rect x="140.2" y="341.04" width="61.81" height="1.85" rx="0.91"/><path class="cls-1" d="M88.9,345c-.28-.22,0-.29.68-.22l.15.46a2,2,0,0,1-1.31,2.49,1.77,1.77,0,0,1-.56.09l-8,.09A.83.83,0,0,1,79,347v-1a.71.71,0,0,1,.6-.79h.18Z" transform="translate(0 0)"/><path class="cls-1" d="M59.41,348.61c.61-.29.88-.29.8,0l16.39.11c.41,0,.58.22.52.62a1,1,0,0,1-1.09,1h-.11q-6.57-.09-13.16.05C60.9,350.39,59.76,349.81,59.41,348.61Z" transform="translate(0 0)"/><path class="cls-3" d="M129.84,423.38V387h21.85v3.74H134.05v14H149v3.73h-14.9v14.9Z" transform="translate(0 0)"/><path class="cls-3" d="M151.42,423.38l10-36.38h9.11l9.9,36.38h-4.21l-2.58-9.21H158.21l-2.58,9.21Zm7.69-12.95h13.58l-5.42-19.85h-2.74Z" transform="translate(0 0)"/><path class="cls-3" d="M207.28,431.07l-4.63-7.63a16.27,16.27,0,0,1-2,.34,20,20,0,0,1-2.35.13q-5.69,0-8.82-2.08a11,11,0,0,1-4.37-6.21,42.86,42.86,0,0,1,0-20.51,11.76,11.76,0,0,1,4.4-6.45q3.13-2.24,8.76-2.24t8.77,2.21a11.74,11.74,0,0,1,4.4,6.45,36.55,36.55,0,0,1,1.26,10.3,35.58,35.58,0,0,1-1.29,10.47,10.36,10.36,0,0,1-4.71,6.11l4.47,7.27Zm-8.95-10.9c2.78,0,4.88-.53,6.32-1.58a8.09,8.09,0,0,0,2.95-4.87,36.37,36.37,0,0,0,.79-8.34,35.78,35.78,0,0,0-.82-8.3,9.17,9.17,0,0,0-3-5.16,12,12,0,0,0-12.53,0,9.22,9.22,0,0,0-3,5.14,43.25,43.25,0,0,0,0,16.56,8.32,8.32,0,0,0,3,4.92C193.45,419.63,195.56,420.17,198.33,420.17Z" transform="translate(0 0)"/><path class="cls-3" d="M227.71,423.91c-.81,0-1.78-.05-2.92-.16s-2.27-.24-3.4-.39l-3-.45.21-3.53,3,.37c1.1.14,2.18.25,3.24.34s1.89.13,2.52.13a13.81,13.81,0,0,0,3.58-.39,4,4,0,0,0,2.16-1.34,4.33,4.33,0,0,0,.74-2.69,3.4,3.4,0,0,0-.55-2.05,4,4,0,0,0-2.06-1.21,29.19,29.19,0,0,0-4.34-.9,27.41,27.41,0,0,1-4.92-1.18,5.79,5.79,0,0,1-2.93-2.13,7.32,7.32,0,0,1-.94-4.06,7.1,7.1,0,0,1,1.37-4.63,7.39,7.39,0,0,1,3.55-2.4,14.73,14.73,0,0,1,4.55-.71c1,0,2.06.05,3.24.16s2.33.24,3.45.39,2.09.31,2.9.45l-.11,3.53c-.84-.14-1.82-.27-2.95-.4s-2.25-.22-3.37-.31-2.1-.13-3-.13a10.79,10.79,0,0,0-2.84.34,4,4,0,0,0-2,1.18,3.52,3.52,0,0,0-.74,2.37,3.05,3.05,0,0,0,.53,1.87,3.93,3.93,0,0,0,2,1.19,32.76,32.76,0,0,0,4.26.94,25.55,25.55,0,0,1,5.24,1.32,5.74,5.74,0,0,1,2.87,2.21,7.48,7.48,0,0,1,.9,4,8.55,8.55,0,0,1-1.24,4.87,6.81,6.81,0,0,1-3.53,2.61A16.82,16.82,0,0,1,227.71,423.91Z" transform="translate(0 0)"/></svg>