<?xml version="1.0" encoding="UTF-8" standalone="no"?>
<!DOCTYPE svg PUBLIC "-//W3C//DTD SVG 1.1//EN" "http://www.w3.org/Graphics/SVG/1.1/DTD/svg11.dtd">
<svg xmlns="http://www.w3.org/2000/svg" version="1.1" viewBox="0.00 0.00 100.00 100.00">
<path fill="#4fb2b2" d="
  M 95.94 50.00
  A 45.94 45.94 0.0 0 1 50.00 95.94
  A 45.94 45.94 0.0 0 1 4.06 50.00
  A 45.94 45.94 0.0 0 1 50.00 4.06
  A 45.94 45.94 0.0 0 1 95.94 50.00
  Z
  M 52.61 31.46
  L 64.70 43.56
  A 1.67 1.66 62.2 0 0 66.18 44.02
  Q 67.42 43.80 67.94 42.64
  A 1.72 1.71 34.7 0 0 67.59 40.72
  L 51.81 24.94
  Q 50.01 23.13 48.20 24.94
  L 32.45 40.69
  A 1.65 1.63 -23.5 0 0 31.98 41.86
  Q 32.02 43.02 32.75 43.53
  Q 34.29 44.58 35.60 43.27
  L 47.49 31.38
  Q 47.97 30.89 47.97 31.58
  L 48.07 74.02
  Q 48.08 75.27 49.20 75.80
  Q 49.64 76.01 50.07 75.97
  Q 51.90 75.80 51.90 73.97
  L 52.02 31.70
  Q 52.02 30.87 52.61 31.46
  Z"
/>
</svg>
