<?xml version="1.0" encoding="UTF-8" standalone="no"?>
<!DOCTYPE svg PUBLIC "-//W3C//DTD SVG 1.1//EN" "http://www.w3.org/Graphics/SVG/1.1/DTD/svg11.dtd">
<svg xmlns="http://www.w3.org/2000/svg" version="1.1" viewBox="0.00 0.00 100.00 100.00">
<g stroke-width="2.00" fill="none" stroke-linecap="butt">
<path stroke="#407272" vector-effect="non-scaling-stroke" d="
  M 95.95 49.99
  A 45.95 45.95 0.0 0 0 50.00 4.04
  A 45.95 45.95 0.0 0 0 4.05 49.99
  A 45.95 45.95 0.0 0 0 50.00 95.94
  A 45.95 45.95 0.0 0 0 95.95 49.99"
/>
<path stroke="#407272" vector-effect="non-scaling-stroke" d="
  M 52.62 31.45
  L 64.57 43.41
  A 1.41 1.34 73.1 0 0 65.17 43.75
  Q 66.90 44.17 67.45 43.33
  Q 68.54 41.68 67.14 40.29
  L 51.55 24.69
  A 2.19 2.18 -44.9 0 0 48.46 24.69
  L 32.71 40.46
  A 1.75 1.70 75.6 0 0 32.24 41.28
  Q 31.86 42.86 32.64 43.43
  Q 34.26 44.63 35.67 43.20
  L 47.39 31.46
  Q 47.99 30.86 47.99 31.70
  L 48.03 73.84
  Q 48.03 75.39 49.48 75.95
  Q 49.79 76.07 50.12 76.00
  Q 52.00 75.55 52.00 73.62
  L 52.00 31.71
  Q 52.00 30.82 52.62 31.45"
/>
</g>
<path fill="#313231" d="
  M 96.95 49.99
  A 46.95 46.95 0.0 0 1 50.00 96.94
  A 46.95 46.95 0.0 0 1 3.05 49.99
  A 46.95 46.95 0.0 0 1 50.00 3.04
  A 46.95 46.95 0.0 0 1 96.95 49.99
  Z
  M 95.95 49.99
  A 45.95 45.95 0.0 0 0 50.00 4.04
  A 45.95 45.95 0.0 0 0 4.05 49.99
  A 45.95 45.95 0.0 0 0 50.00 95.94
  A 45.95 45.95 0.0 0 0 95.95 49.99
  Z"
/>
<path fill="#4fb2b2" d="
  M 95.95 49.99
  A 45.95 45.95 0.0 0 1 50.00 95.94
  A 45.95 45.95 0.0 0 1 4.05 49.99
  A 45.95 45.95 0.0 0 1 50.00 4.04
  A 45.95 45.95 0.0 0 1 95.95 49.99
  Z
  M 52.62 31.45
  L 64.57 43.41
  A 1.41 1.34 73.1 0 0 65.17 43.75
  Q 66.90 44.17 67.45 43.33
  Q 68.54 41.68 67.14 40.29
  L 51.55 24.69
  A 2.19 2.18 -44.9 0 0 48.46 24.69
  L 32.71 40.46
  A 1.75 1.70 75.6 0 0 32.24 41.28
  Q 31.86 42.86 32.64 43.43
  Q 34.26 44.63 35.67 43.20
  L 47.39 31.46
  Q 47.99 30.86 47.99 31.70
  L 48.03 73.84
  Q 48.03 75.39 49.48 75.95
  Q 49.79 76.07 50.12 76.00
  Q 52.00 75.55 52.00 73.62
  L 52.00 31.71
  Q 52.00 30.82 52.62 31.45
  Z"
/>
<path fill="#313231" d="
  M 52.00 31.71
  L 52.00 73.62
  Q 52.00 75.55 50.12 76.00
  Q 49.79 76.07 49.48 75.95
  Q 48.03 75.39 48.03 73.84
  L 47.99 31.70
  Q 47.99 30.86 47.39 31.46
  L 35.67 43.20
  Q 34.26 44.63 32.64 43.43
  Q 31.86 42.86 32.24 41.28
  A 1.75 1.70 75.6 0 1 32.71 40.46
  L 48.46 24.69
  A 2.19 2.18 -44.9 0 1 51.55 24.69
  L 67.14 40.29
  Q 68.54 41.68 67.45 43.33
  Q 66.90 44.17 65.17 43.75
  A 1.41 1.34 73.1 0 1 64.57 43.41
  L 52.62 31.45
  Q 52.00 30.82 52.00 31.71
  Z"
/>
</svg>
