<?xml version="1.0" encoding="UTF-8" standalone="no"?>
<!DOCTYPE svg PUBLIC "-//W3C//DTD SVG 1.1//EN" "http://www.w3.org/Graphics/SVG/1.1/DTD/svg11.dtd">
<svg xmlns="http://www.w3.org/2000/svg" version="1.1" viewBox="0.00 0.00 64.00 64.00">
<path fill="#000000" d="
  M 14.61 0.00
  L 16.03 0.00
  Q 18.22 0.87 18.68 2.07
  C 21.25 8.67 11.21 10.14 11.27 3.83
  Q 11.30 1.06 14.61 0.00
  Z"
/>
<path fill="#000000" d="
  M 56.45 4.88
  L 29.70 4.88
  Q 29.03 4.88 29.03 5.55
  L 29.04 12.22
  Q 29.04 12.79 28.54 13.05
  L 26.70 13.97
  Q 26.26 14.19 26.26 13.70
  L 26.27 3.74
  A 1.67 1.67 0.0 0 1 27.94 2.07
  L 58.31 2.07
  A 1.49 1.48 90.0 0 1 59.79 3.56
  L 59.79 26.21
  A 1.47 1.46 -90.0 0 1 58.33 27.68
  L 27.93 27.68
  A 1.54 1.53 79.9 0 1 26.49 26.67
  Q 25.18 23.06 28.62 22.00
  Q 29.03 21.87 29.03 22.30
  L 29.03 24.21
  Q 29.03 24.88 29.70 24.88
  L 56.44 24.88
  Q 57.01 24.88 57.01 24.31
  L 57.01 5.45
  Q 57.01 4.88 56.45 4.88
  Z"
/>
<path fill="#000000" d="
  M 16.78 13.50
  L 18.25 9.77
  Q 18.40 9.39 18.81 9.34
  C 24.47 8.58 24.84 12.50 24.97 16.76
  Q 24.98 17.30 25.45 17.03
  L 29.32 14.79
  A 1.42 1.42 0.0 0 1 31.34 15.47
  L 31.55 15.97
  Q 32.17 17.45 30.81 18.29
  L 24.15 22.41
  A 2.00 2.00 0.0 0 1 21.10 20.75
  L 21.00 13.75
  Q 20.99 13.63 20.88 13.61
  L 20.62 13.57
  Q 20.26 13.51 20.26 13.88
  L 20.29 40.99
  Q 20.29 42.76 18.64 43.38
  L 17.51 43.81
  Q 15.31 44.65 16.20 42.47
  Q 17.33 39.71 15.95 37.16
  Q 15.74 36.77 15.73 36.32
  L 15.65 27.95
  Q 15.65 27.43 15.14 27.55
  L 14.86 27.62
  Q 14.74 27.65 14.74 27.78
  L 14.70 35.00
  Q 14.70 35.18 14.53 35.13
  L 10.32 33.72
  Q 10.04 33.62 10.03 33.33
  L 10.01 13.91
  Q 10.01 13.55 9.65 13.58
  L 9.39 13.61
  Q 9.29 13.62 9.29 13.73
  L 9.22 27.76
  Q 9.21 29.67 7.30 29.67
  L 6.90 29.67
  A 1.47 1.47 0.0 0 1 5.44 28.21
  Q 5.39 21.46 5.48 15.29
  C 5.54 11.23 7.18 8.78 11.50 9.30
  A 0.83 0.82 -6.3 0 1 12.18 9.84
  L 13.32 12.99
  Q 13.42 13.26 13.60 13.03
  Q 14.82 11.54 14.28 9.75
  Q 14.08 9.10 14.75 9.18
  L 15.70 9.28
  Q 16.12 9.33 16.07 9.75
  Q 15.87 11.59 16.62 13.50
  Q 16.70 13.70 16.78 13.50
  Z"
/>
<rect fill="#000000" x="-3.50" y="-1.06" transform="translate(35.41,12.02) rotate(-38.7)" width="7.00" height="2.12" rx="0.81"/>
<circle fill="#000000" cx="10.36" cy="40.31" r="4.17"/>
<circle fill="#000000" cx="33.11" cy="40.31" r="4.17"/>
<circle fill="#000000" cx="53.64" cy="40.36" r="4.16"/>
<circle fill="#000000" cx="22.00" cy="48.74" r="4.22"/>
<circle fill="#000000" cx="42.75" cy="48.85" r="4.22"/>
<path fill="#000000" d="
  M 0.00 55.29
  L 0.00 50.41
  C 1.20 44.27 9.41 45.68 15.63 46.00
  Q 16.21 46.03 15.99 46.56
  Q 14.88 49.18 16.17 51.68
  A 0.47 0.46 72.7 0 1 15.82 52.36
  Q 12.90 52.73 11.16 55.05
  Q 10.84 55.48 10.30 55.48
  L 5.50 55.49
  Q 5.00 55.49 4.99 55.00
  L 4.89 50.72
  A 0.25 0.25 0.0 0 0 4.73 50.49
  L 4.37 50.36
  Q 4.16 50.28 4.15 50.50
  L 4.05 54.80
  Q 4.04 55.34 3.51 55.43
  Q 1.67 55.71 0.00 55.29
  Z"
/>
<path fill="#000000" d="
  M 28.30 48.63
  L 27.76 46.50
  Q 27.60 45.87 28.25 45.87
  L 36.50 45.86
  A 0.48 0.47 11.7 0 1 36.94 46.52
  Q 35.77 49.17 37.04 51.78
  A 0.44 0.43 75.0 0 1 36.68 52.41
  Q 34.55 52.55 32.96 53.96
  A 0.75 0.74 -44.7 0 1 31.97 53.96
  Q 30.29 52.47 28.02 52.26
  A 0.58 0.58 0.0 0 1 27.52 51.52
  L 28.30 48.75
  A 0.19 0.19 0.0 0 0 28.30 48.63
  Z"
/>
<path fill="#000000" d="
  M 64.00 50.55
  L 64.00 55.36
  L 60.47 55.47
  Q 60.00 55.48 59.99 55.01
  L 59.89 50.70
  Q 59.88 50.51 59.69 50.52
  L 59.32 50.53
  Q 59.13 50.54 59.13 50.73
  L 59.05 54.98
  Q 59.04 55.49 58.53 55.49
  L 54.27 55.48
  A 1.14 1.14 0.0 0 1 53.34 55.00
  Q 51.75 52.78 49.00 52.48
  Q 48.37 52.41 48.44 51.79
  C 48.70 49.44 49.50 49.06 48.65 46.58
  Q 48.47 46.05 49.02 46.03
  C 54.99 45.84 62.82 44.24 64.00 50.55
  Z"
/>
<path fill="#000000" d="
  M 52.77 64.00
  L 48.90 64.00
  L 48.75 59.33
  Q 48.74 59.08 48.50 59.08
  L 48.22 59.07
  Q 48.02 59.07 48.02 59.27
  L 47.94 64.00
  L 37.17 64.00
  L 36.94 59.36
  Q 36.93 59.05 36.64 59.15
  Q 36.50 59.19 36.41 59.28
  Q 36.29 59.41 36.32 59.73
  Q 36.59 61.96 36.14 64.00
  L 28.50 64.00
  C 27.72 63.17 28.53 60.58 28.08 59.27
  A 0.31 0.31 0.0 0 0 27.48 59.31
  Q 27.18 60.84 27.43 62.26
  Q 27.65 63.51 27.01 64.00
  L 16.82 64.00
  L 16.62 59.45
  A 0.27 0.26 -38.1 0 0 16.10 59.39
  Q 15.51 61.29 15.91 64.00
  L 12.03 64.00
  C 9.74 52.01 19.02 54.31 26.51 54.23
  Q 30.81 54.19 32.21 58.07
  Q 32.43 58.70 32.64 58.07
  Q 33.78 54.50 37.24 54.48
  Q 42.88 54.43 48.50 54.49
  C 52.83 54.53 53.15 60.05 52.77 64.00
  Z"
/>
</svg>
