<?xml version="1.0" encoding="UTF-8" standalone="no"?>
<!DOCTYPE svg PUBLIC "-//W3C//DTD SVG 1.1//EN" "http://www.w3.org/Graphics/SVG/1.1/DTD/svg11.dtd">
<svg xmlns="http://www.w3.org/2000/svg" version="1.1" viewBox="0.00 0.00 64.00 64.00">
<path fill="#000000" d="
  M 31.40 0.00
  L 32.71 0.00
  C 46.02 2.43 46.88 19.53 33.51 22.43
  Q 33.37 22.46 33.39 22.61
  L 33.39 22.61
  Q 33.41 22.75 33.50 22.74
  Q 38.07 22.34 42.27 24.11
  Q 43.34 24.57 42.22 24.88
  Q 37.22 26.28 32.71 28.84
  A 0.92 0.91 -48.3 0 1 31.91 28.89
  L 21.54 24.57
  A 0.21 0.21 0.0 0 1 21.53 24.19
  Q 25.81 22.31 30.50 22.78
  Q 30.65 22.79 30.67 22.62
  L 30.67 22.62
  Q 30.69 22.49 30.56 22.46
  C 17.10 19.61 17.93 2.36 31.40 0.00
  Z"
/>
<path fill="#000000" d="
  M 10.41 48.42
  C 11.69 45.46 11.58 38.31 10.82 35.55
  Q 9.61 31.13 4.34 30.21
  Q 3.90 30.13 3.80 29.69
  C 3.33 27.64 4.28 26.50 6.40 26.48
  Q 18.80 26.36 29.77 32.26
  A 0.67 0.67 0.0 0 1 30.12 32.85
  L 30.13 63.47
  A 0.36 0.36 0.0 0 1 29.57 63.77
  Q 18.93 56.75 6.10 56.43
  Q 3.91 56.37 3.75 54.18
  L 3.72 53.72
  A 1.28 1.28 0.0 0 1 4.92 52.35
  Q 8.83 52.10 10.41 48.42
  Z"
/>
<path fill="#000000" d="
  M 59.31 30.34
  C 52.35 30.89 52.15 39.24 52.84 45.00
  Q 53.62 51.60 59.66 52.58
  Q 60.12 52.66 60.21 53.12
  C 60.70 55.75 59.12 56.36 56.82 56.47
  Q 44.80 57.02 34.47 63.73
  A 0.39 0.38 73.8 0 1 33.88 63.40
  L 33.88 33.06
  Q 33.88 32.46 34.40 32.18
  Q 45.68 26.12 58.58 26.51
  A 1.58 1.58 0.0 0 1 60.09 27.82
  L 60.31 29.05
  Q 60.51 30.24 59.31 30.34
  Z"
/>
<path fill="#000000" d="
  M 0.00 45.85
  L 0.00 36.76
  C 1.18 33.88 4.92 32.77 6.67 35.27
  C 8.04 37.23 7.57 43.33 7.47 45.25
  C 7.25 49.63 1.61 50.09 0.00 45.85
  Z"
/>
<path fill="#000000" d="
  M 64.00 36.87
  L 64.00 45.97
  C 62.82 48.99 58.81 49.98 57.19 47.28
  C 55.97 45.27 56.49 40.30 56.49 37.75
  C 56.48 33.40 62.41 32.36 64.00 36.87
  Z"
/>
</svg>
